<svg width="32" height="32" viewBox="0 0 32 32" fill="none" xmlns="http://www.w3.org/2000/svg">
<path d="M10.0312 23C10.0312 22.7431 10.1333 22.4967 10.315 22.315C10.4967 22.1333 10.7431 22.0312 11 22.0312H29C29.2569 22.0312 29.5033 22.1333 29.685 22.315C29.8667 22.4967 29.9688 22.7431 29.9688 23C29.9688 23.2569 29.8667 23.5033 29.685 23.685C29.5033 23.8667 29.2569 23.9688 29 23.9688H11C10.7431 23.9688 10.4967 23.8667 10.315 23.685C10.1333 23.5033 10.0312 23.2569 10.0312 23ZM10.0312 15C10.0312 14.7431 10.1333 14.4967 10.315 14.315C10.4967 14.1333 10.7431 14.0312 11 14.0312H29C29.2569 14.0312 29.5033 14.1333 29.685 14.315C29.8667 14.4967 29.9688 14.7431 29.9688 15C29.9688 15.2569 29.8667 15.5033 29.685 15.685C29.5033 15.8667 29.2569 15.9688 29 15.9688H11C10.7431 15.9688 10.4967 15.8667 10.315 15.685C10.1333 15.5033 10.0312 15.2569 10.0312 15ZM10.0312 7C10.0312 6.74307 10.1333 6.49667 10.315 6.31499C10.4967 6.13331 10.7431 6.03125 11 6.03125H29C29.2569 6.03125 29.5033 6.13331 29.685 6.31499C29.8667 6.49667 29.9688 6.74307 29.9688 7C29.9688 7.25693 29.8667 7.50333 29.685 7.68501C29.5033 7.86669 29.2569 7.96875 29 7.96875H11C10.7431 7.96875 10.4967 7.86669 10.315 7.68501C10.1333 7.50333 10.0312 7.25693 10.0312 7ZM5.39212 8.39212C5.0229 8.76133 4.52214 8.96875 4 8.96875C3.47786 8.96875 2.9771 8.76133 2.60788 8.39212C2.23867 8.0229 2.03125 7.52215 2.03125 7C2.03125 6.47786 2.23867 5.9771 2.60788 5.60788C2.9771 5.23867 3.47786 5.03125 4 5.03125C4.52215 5.03125 5.0229 5.23867 5.39212 5.60788C5.76133 5.9771 5.96875 6.47786 5.96875 7C5.96875 7.52215 5.76133 8.0229 5.39212 8.39212ZM5.39212 16.3921C5.0229 16.7613 4.52214 16.9688 4 16.9688C3.47786 16.9688 2.9771 16.7613 2.60788 16.3921C2.23867 16.0229 2.03125 15.5221 2.03125 15C2.03125 14.4779 2.23867 13.9771 2.60788 13.6079C2.9771 13.2387 3.47786 13.0312 4 13.0312C4.52214 13.0312 5.0229 13.2387 5.39212 13.6079C5.76133 13.9771 5.96875 14.4779 5.96875 15C5.96875 15.5221 5.76133 16.0229 5.39212 16.3921ZM5.39212 24.3921C5.0229 24.7613 4.52214 24.9688 4 24.9688C3.47786 24.9688 2.9771 24.7613 2.60788 24.3921C2.23867 24.0229 2.03125 23.5221 2.03125 23C2.03125 22.4779 2.23867 21.9771 2.60788 21.6079C2.9771 21.2387 3.47786 21.0312 4 21.0312C4.52214 21.0312 5.0229 21.2387 5.39212 21.6079C5.76133 21.9771 5.96875 22.4779 5.96875 23C5.96875 23.5221 5.76133 24.0229 5.39212 24.3921Z" fill="#2E3F83" stroke="#2E3F83" stroke-width="0.0625"/>
</svg>
