<svg width="32" height="32" viewBox="0 0 32 32" fill="none" xmlns="http://www.w3.org/2000/svg">
<path fill-rule="evenodd" clip-rule="evenodd" d="M2 28C2 28 0 28 0 26C0 24 2 18 12 18C22 18 24 24 24 26C24 28 22 28 22 28H2ZM12 16C13.5913 16 15.1174 15.3679 16.2426 14.2426C17.3679 13.1174 18 11.5913 18 10C18 8.4087 17.3679 6.88258 16.2426 5.75736C15.1174 4.63214 13.5913 4 12 4C10.4087 4 8.88258 4.63214 7.75736 5.75736C6.63214 6.88258 6 8.4087 6 10C6 11.5913 6.63214 13.1174 7.75736 14.2426C8.88258 15.3679 10.4087 16 12 16V16ZM27 10C27.2652 10 27.5196 10.1054 27.7071 10.2929C27.8946 10.4804 28 10.7348 28 11V14H31C31.2652 14 31.5196 14.1054 31.7071 14.2929C31.8946 14.4804 32 14.7348 32 15C32 15.2652 31.8946 15.5196 31.7071 15.7071C31.5196 15.8946 31.2652 16 31 16H28V19C28 19.2652 27.8946 19.5196 27.7071 19.7071C27.5196 19.8946 27.2652 20 27 20C26.7348 20 26.4804 19.8946 26.2929 19.7071C26.1054 19.5196 26 19.2652 26 19V16H23C22.7348 16 22.4804 15.8946 22.2929 15.7071C22.1054 15.5196 22 15.2652 22 15C22 14.7348 22.1054 14.4804 22.2929 14.2929C22.4804 14.1054 22.7348 14 23 14H26V11C26 10.7348 26.1054 10.4804 26.2929 10.2929C26.4804 10.1054 26.7348 10 27 10Z" fill="white"/>
</svg>
