<svg width="32" height="32" viewBox="0 0 32 32" fill="none" xmlns="http://www.w3.org/2000/svg">
<path d="M5.77778 27C5.01389 27 4.36019 26.7282 3.81667 26.1847C3.27315 25.6412 3.00093 24.987 3 24.2222V4.77778C3 4.01389 3.27222 3.36019 3.81667 2.81667C4.36111 2.27315 5.01481 2.00093 5.77778 2H14.1111V4.77778H5.77778V24.2222H25.2222V15.8889H28V24.2222C28 24.9861 27.7282 25.6403 27.1847 26.1847C26.6412 26.7292 25.987 27.0009 25.2222 27H5.77778ZM21.0556 13.1111V8.94444H16.8889V6.16667H21.0556V2H23.8333V6.16667H28V8.94444H23.8333V13.1111H21.0556Z" fill="white"/>
</svg>
