<svg width="14" height="14" viewBox="0 0 14 14" fill="none" xmlns="http://www.w3.org/2000/svg">
<g clip-path="url(#clip0_10437_2001)">
<path fill-rule="evenodd" clip-rule="evenodd" d="M7 4.375C7 4.83913 6.81563 5.28425 6.48744 5.61244C6.15925 5.94063 5.71413 6.125 5.25 6.125C4.78587 6.125 4.34075 5.94063 4.01256 5.61244C3.68437 5.28425 3.5 4.83913 3.5 4.375C3.5 3.91087 3.68437 3.46575 4.01256 3.13756C4.34075 2.80937 4.78587 2.625 5.25 2.625C5.71413 2.625 6.15925 2.80937 6.48744 3.13756C6.81563 3.46575 7 3.91087 7 4.375ZM5.25 7C5.94619 7 6.61387 6.72344 7.10616 6.23116C7.59844 5.73887 7.875 5.07119 7.875 4.375C7.875 3.67881 7.59844 3.01113 7.10616 2.51884C6.61387 2.02656 5.94619 1.75 5.25 1.75C4.55381 1.75 3.88613 2.02656 3.39384 2.51884C2.90156 3.01113 2.625 3.67881 2.625 4.375C2.625 5.07119 2.90156 5.73887 3.39384 6.23116C3.88613 6.72344 4.55381 7 5.25 7ZM10.5 11.375C10.5 12.25 9.625 12.25 9.625 12.25H0.875C0.875 12.25 0 12.25 0 11.375C0 10.5 0.875 7.875 5.25 7.875C9.625 7.875 10.5 10.5 10.5 11.375ZM9.625 11.3715C9.62412 11.1562 9.49025 10.5087 8.897 9.9155C8.3265 9.345 7.25287 8.75 5.25 8.75C3.24625 8.75 2.1735 9.345 1.603 9.9155C1.00975 10.5087 0.87675 11.1562 0.875 11.3715H9.625ZM13.8722 4.50275C13.913 4.54339 13.9453 4.59167 13.9674 4.64482C13.9894 4.69797 14.0008 4.75495 14.0008 4.8125C14.0008 4.87005 13.9894 4.92703 13.9674 4.98018C13.9453 5.03333 13.913 5.08161 13.8722 5.12225L11.2472 7.74725C11.2066 7.78799 11.1583 7.82032 11.1052 7.84237C11.052 7.86443 10.995 7.87578 10.9375 7.87578C10.88 7.87578 10.823 7.86443 10.7698 7.84237C10.7167 7.82032 10.6684 7.78799 10.6278 7.74725L9.31525 6.43475C9.2331 6.3526 9.18695 6.24118 9.18695 6.125C9.18695 6.00882 9.2331 5.8974 9.31525 5.81525C9.3974 5.7331 9.50882 5.68695 9.625 5.68695C9.74118 5.68695 9.8526 5.7331 9.93475 5.81525L10.9375 6.81888L13.2528 4.50275C13.2934 4.46201 13.3417 4.42968 13.3948 4.40763C13.448 4.38557 13.505 4.37422 13.5625 4.37422C13.62 4.37422 13.677 4.38557 13.7302 4.40763C13.7833 4.42968 13.8316 4.46201 13.8722 4.50275Z" fill="#333333"/>
</g>
<defs>
<clipPath id="clip0_10437_2001">
<rect width="14" height="14" fill="white"/>
</clipPath>
</defs>
</svg>
