<?xml version="1.0" encoding="UTF-8"?>
<svg version="1.1" xmlns="http://www.w3.org/2000/svg" width="32" height="32">
<path d="M0 0 C1.00933594 0.04833984 2.01867187 0.09667969 3.05859375 0.14648438 C10.47844483 0.54094483 10.47844483 0.54094483 11.625 1.6875 C11.66754356 3.68704746 11.66580783 5.68791636 11.625 7.6875 C11.625 9.20847602 11.65041405 10.72947618 11.6875 12.25 C11.625 14.6875 11.625 14.6875 10.625 15.6875 C9.28232587 15.77381874 7.93525678 15.79456473 6.58984375 15.78515625 C5.78095703 15.78193359 4.97207031 15.77871094 4.13867188 15.77539062 C3.28853516 15.76701172 2.43839844 15.75863281 1.5625 15.75 C0.70849609 15.74548828 -0.14550781 15.74097656 -1.02539062 15.73632812 C-3.14195663 15.72450373 -5.25848685 15.70656769 -7.375 15.6875 C-7.705 14.3675 -8.035 13.0475 -8.375 11.6875 C-9.035 13.0075 -9.695 14.3275 -10.375 15.6875 C-13.015 15.6875 -15.655 15.6875 -18.375 15.6875 C-18.375 11.02083333 -18.375 6.35416667 -18.375 1.6875 C-12.12433846 -0.59740569 -6.58841853 -0.4004725 0 0 Z M-8.375 2.6875 C-9.035 4.0075 -9.695 5.3275 -10.375 6.6875 C-9.385 7.0175 -8.395 7.3475 -7.375 7.6875 C-7.375 6.0375 -7.375 4.3875 -7.375 2.6875 C-7.705 2.6875 -8.035 2.6875 -8.375 2.6875 Z M-6.375 2.6875 C-6.375 4.0075 -6.375 5.3275 -6.375 6.6875 C-1.095 6.6875 4.185 6.6875 9.625 6.6875 C9.625 5.3675 9.625 4.0475 9.625 2.6875 C4.345 2.6875 -0.935 2.6875 -6.375 2.6875 Z M-16.375 4.6875 C-15.375 6.6875 -15.375 6.6875 -15.375 6.6875 Z M-6.375 10.6875 C-6.045 12.0075 -5.715 13.3275 -5.375 14.6875 C-0.425 14.6875 4.525 14.6875 9.625 14.6875 C9.625 13.3675 9.625 12.0475 9.625 10.6875 C4.345 10.6875 -0.935 10.6875 -6.375 10.6875 Z M-16.375 12.6875 C-16.375 13.3475 -16.375 14.0075 -16.375 14.6875 C-15.715 14.3575 -15.055 14.0275 -14.375 13.6875 C-15.035 13.3575 -15.695 13.0275 -16.375 12.6875 Z " fill="#FFFFFF" transform="translate(19.375,4.3125)"/>
<path d="M0 0 C2.97922593 -0.02683987 5.95821295 -0.04676037 8.9375 -0.0625 C9.78763672 -0.07087891 10.63777344 -0.07925781 11.51367188 -0.08789062 C12.32255859 -0.09111328 13.13144531 -0.09433594 13.96484375 -0.09765625 C14.7137085 -0.10289307 15.46257324 -0.10812988 16.23413086 -0.11352539 C18 0 18 0 19 1 C19.125 3.5 19.125 3.5 19 6 C18 7 18 7 16.23413086 7.11352539 C15.48526611 7.10828857 14.73640137 7.10305176 13.96484375 7.09765625 C13.15595703 7.09443359 12.34707031 7.09121094 11.51367188 7.08789062 C10.66353516 7.07951172 9.81339844 7.07113281 8.9375 7.0625 C8.08349609 7.05798828 7.22949219 7.05347656 6.34960938 7.04882812 C4.23304337 7.03700373 2.11651315 7.01906769 0 7 C0 4.69 0 2.38 0 0 Z M2 1 C1.67 2.32 1.34 3.64 1 5 C2.16277032 6.39156484 2.16277032 6.39156484 5.37890625 6.09765625 C6.77347077 6.09098369 8.16801743 6.07902532 9.5625 6.0625 C10.62887695 6.05573242 10.62887695 6.05573242 11.71679688 6.04882812 C13.47790013 6.03700864 15.23896036 6.01907263 17 6 C17 4.35 17 2.7 17 1 C12.05 1 7.1 1 2 1 Z " fill="#FFFFFF" transform="translate(12,21)"/>
<path d="M0 0 C2.64 0 5.28 0 8 0 C8 2.31 8 4.62 8 7 C5.36 7 2.72 7 0 7 C0 4.69 0 2.38 0 0 Z M2 1 C2 2.65 2 4.3 2 6 C3.32 6 4.64 6 6 6 C6 4.35 6 2.7 6 1 C4.68 1 3.36 1 2 1 Z " fill="#FFFFFF" transform="translate(1,21)"/>
<path d="M0 0 C4.62 0 9.24 0 14 0 C14 0.66 14 1.32 14 2 C9.38 2 4.76 2 0 2 C0 1.34 0 0.68 0 0 Z " fill="#FFFFFF" transform="translate(14,8)"/>
<path d="M0 0 C4.62 0 9.24 0 14 0 C14 0.66 14 1.32 14 2 C9.71 2 5.42 2 1 2 C0.67 1.34 0.34 0.68 0 0 Z " fill="#FFFFFF" transform="translate(14,16)"/>
<path d="M0 0 C4.62 0 9.24 0 14 0 C14 0.33 14 0.66 14 1 C9.38 1 4.76 1 0 1 C0 0.67 0 0.34 0 0 Z " fill="#FFFFFF" transform="translate(14,24)"/>
</svg>
