<svg width="32" height="32" viewBox="0 0 32 32" fill="none" xmlns="http://www.w3.org/2000/svg">
<path fill-rule="evenodd" clip-rule="evenodd" d="M4 4C4 2.93913 4.42143 1.92172 5.17157 1.17157C5.92172 0.421427 6.93913 0 8 0L24 0C25.0609 0 26.0783 0.421427 26.8284 1.17157C27.5786 1.92172 28 2.93913 28 4V28C28 29.0609 27.5786 30.0783 26.8284 30.8284C26.0783 31.5786 25.0609 32 24 32H8C6.93913 32 5.92172 31.5786 5.17157 30.8284C4.42143 30.0783 4 29.0609 4 28V4ZM8 2C7.46957 2 6.96086 2.21071 6.58579 2.58579C6.21071 2.96086 6 3.46957 6 4V12H26V4C26 3.46957 25.7893 2.96086 25.4142 2.58579C25.0391 2.21071 24.5304 2 24 2H8ZM26 14H20V18H26V14ZM26 20H20V24H26V20ZM26 26H20V30H24C24.5304 30 25.0391 29.7893 25.4142 29.4142C25.7893 29.0391 26 28.5304 26 28V26ZM18 30V26H12V30H18ZM10 30V26H6V28C6 28.5304 6.21071 29.0391 6.58579 29.4142C6.96086 29.7893 7.46957 30 8 30H10ZM6 24H10V20H6V24ZM6 18H10V14H6V18ZM12 14V18H18V14H12ZM18 20H12V24H18V20Z" fill="#2E3F83"/>
</svg>
