<svg width="32" height="32" viewBox="0 0 32 32" fill="none" xmlns="http://www.w3.org/2000/svg">
<path d="M28.8117 26.5313L28.8117 26.5313L28.8125 26.5327C28.878 26.6394 28.9214 26.7581 28.9402 26.8819C28.959 27.0057 28.9529 27.132 28.9221 27.2533C28.8913 27.3747 28.8365 27.4886 28.761 27.5884C28.6855 27.6883 28.5907 27.772 28.4823 27.8346C28.3739 27.8972 28.254 27.9375 28.1298 27.953C28.0056 27.9686 27.8795 27.9591 27.759 27.9251C27.6385 27.8911 27.526 27.8334 27.4282 27.7553C27.3304 27.6771 27.2492 27.5802 27.1895 27.4702L27.1895 27.4701L27.1887 27.4687C24.8228 23.3798 20.6399 20.9375 16.0008 20.9375C11.3618 20.9375 7.1789 23.3798 4.81298 27.4687L4.81296 27.4687L4.81215 27.4702C4.75241 27.5802 4.67124 27.6771 4.57343 27.7553C4.47561 27.8334 4.36314 27.8911 4.24265 27.9251C4.12215 27.9591 3.99607 27.9686 3.87185 27.953C3.74763 27.9375 3.62778 27.8972 3.51937 27.8346C3.41096 27.772 3.31619 27.6883 3.24066 27.5884C3.16512 27.4886 3.11035 27.3746 3.07956 27.2533C3.04878 27.132 3.04261 27.0057 3.06143 26.8819C3.08024 26.7581 3.12365 26.6394 3.18911 26.5327L3.18912 26.5327L3.18993 26.5313C5.08611 23.2519 8.00763 20.902 11.4165 19.7894L11.5473 19.7467L11.429 19.6763C9.74727 18.6751 8.44063 17.1495 7.70979 15.3339C6.97895 13.5182 6.86433 11.5129 7.38351 9.62576C7.9027 7.73865 9.027 6.07414 10.5837 4.88785C12.1405 3.70156 14.0436 3.05908 16.0008 3.05908C17.9581 3.05908 19.8612 3.70156 21.4179 4.88785C22.9747 6.07414 24.0989 7.73865 24.6181 9.62576C25.1373 11.5129 25.0227 13.5182 24.2919 15.3339C23.561 17.1495 22.2544 18.6751 20.5726 19.6763L20.4544 19.7467L20.5852 19.7894C23.994 20.9033 26.9155 23.2531 28.8117 26.5313ZM8.93833 12V12C8.94033 13.8725 9.68505 15.6677 11.0091 16.9917C12.3331 18.3158 14.1283 19.0605 16.0008 19.0625H16.0008C17.3977 19.0625 18.7631 18.6483 19.9245 17.8722C21.086 17.0962 21.9912 15.9932 22.5257 14.7027C23.0603 13.4122 23.2001 11.9921 22.9276 10.6222C22.6551 9.25217 21.9825 7.99375 20.9948 7.00604C20.0071 6.01833 18.7486 5.34569 17.3787 5.07319C16.0087 4.80068 14.5886 4.94054 13.2981 5.47508C12.0076 6.00963 10.9046 6.91485 10.1286 8.07627C9.35253 9.23769 8.93833 10.6032 8.93833 12Z" fill="#2E3F83" stroke="#2E3F83" stroke-width="0.125"/>
</svg>
