<svg width="32" height="32" viewBox="0 0 32 32" fill="none" xmlns="http://www.w3.org/2000/svg">
<g clip-path="url(#clip0_16355_4711)">
<path fill-rule="evenodd" clip-rule="evenodd" d="M7 0C7.26522 0 7.51957 0.105357 7.70711 0.292893C7.89464 0.48043 8 0.734784 8 1V2H24V1C24 0.734784 24.1054 0.48043 24.2929 0.292893C24.4804 0.105357 24.7348 0 25 0C25.2652 0 25.5196 0.105357 25.7071 0.292893C25.8946 0.48043 26 0.734784 26 1V2H28C29.0609 2 30.0783 2.42143 30.8284 3.17157C31.5786 3.92172 32 4.93913 32 6V28C32 29.0609 31.5786 30.0783 30.8284 30.8284C30.0783 31.5786 29.0609 32 28 32H4C2.93913 32 1.92172 31.5786 1.17157 30.8284C0.421427 30.0783 0 29.0609 0 28V6C0 4.93913 0.421427 3.92172 1.17157 3.17157C1.92172 2.42143 2.93913 2 4 2H6V1C6 0.734784 6.10536 0.48043 6.29289 0.292893C6.48043 0.105357 6.73478 0 7 0V0ZM2 8V28C2 28.5304 2.21071 29.0391 2.58579 29.4142C2.96086 29.7893 3.46957 30 4 30H28C28.5304 30 29.0391 29.7893 29.4142 29.4142C29.7893 29.0391 30 28.5304 30 28V8H2Z" fill="white"/>
<path fill-rule="evenodd" clip-rule="evenodd" d="M21.7093 14.2928C21.8024 14.3857 21.8763 14.4961 21.9267 14.6175C21.9771 14.739 22.003 14.8693 22.003 15.0008C22.003 15.1323 21.9771 15.2626 21.9267 15.3841C21.8763 15.5056 21.8024 15.6159 21.7093 15.7088L15.7093 21.7088C15.6164 21.8019 15.506 21.8758 15.3845 21.9262C15.263 21.9767 15.1328 22.0026 15.0013 22.0026C14.8697 22.0026 14.7395 21.9767 14.618 21.9262C14.4965 21.8758 14.3862 21.8019 14.2933 21.7088L11.2933 18.7088C11.2003 18.6158 11.1265 18.5055 11.0762 18.384C11.0259 18.2625 11 18.1323 11 18.0008C11 17.8693 11.0259 17.7391 11.0762 17.6176C11.1265 17.4962 11.2003 17.3858 11.2933 17.2928C11.481 17.105 11.7357 16.9995 12.0013 16.9995C12.1328 16.9995 12.263 17.0254 12.3844 17.0758C12.5059 17.1261 12.6163 17.1998 12.7093 17.2928L15.0013 19.5868L20.2933 14.2928C20.3862 14.1997 20.4965 14.1258 20.618 14.0754C20.7395 14.025 20.8697 13.999 21.0013 13.999C21.1328 13.999 21.263 14.025 21.3845 14.0754C21.506 14.1258 21.6164 14.1997 21.7093 14.2928Z" fill="white"/>
</g>
<defs>
<clipPath id="clip0_16355_4711">
<rect width="32" height="32" fill="white"/>
</clipPath>
</defs>
</svg>
