<svg width="14" height="14" viewBox="0 0 14 14" fill="none" xmlns="http://www.w3.org/2000/svg">
<path d="M4.54945 9.5375C4.59543 9.57206 4.64778 9.59721 4.70349 9.61151C4.7592 9.62582 4.81718 9.629 4.87412 9.62087C4.93106 9.61275 4.98584 9.59347 5.03532 9.56415C5.08481 9.53483 5.12802 9.49604 5.1625 9.45C5.42739 9.09682 5.77087 8.81016 6.16574 8.61272C6.56061 8.41529 6.99602 8.3125 7.4375 8.3125C7.87898 8.3125 8.31439 8.41529 8.70926 8.61272C9.10413 8.81016 9.44761 9.09682 9.7125 9.45C9.74697 9.49596 9.79016 9.53469 9.8396 9.56396C9.88903 9.59323 9.94375 9.61248 10.0006 9.6206C10.0575 9.62873 10.1154 9.62557 10.1711 9.61131C10.2267 9.59705 10.279 9.57197 10.325 9.5375C10.371 9.50303 10.4097 9.45984 10.439 9.4104C10.4682 9.36097 10.4875 9.30625 10.4956 9.24937C10.5037 9.1925 10.5006 9.13458 10.4863 9.07892C10.4721 9.02327 10.447 8.97096 10.4125 8.925C10.0251 8.40561 9.5085 7.99667 8.91406 7.73883C9.23983 7.4414 9.46807 7.05244 9.56882 6.62298C9.66957 6.19353 9.63813 5.74364 9.47863 5.33237C9.31912 4.9211 9.03901 4.56766 8.67504 4.31844C8.31107 4.06922 7.88026 3.93585 7.43914 3.93585C6.99802 3.93585 6.56721 4.06922 6.20324 4.31844C5.83928 4.56766 5.55916 4.9211 5.39965 5.33237C5.24015 5.74364 5.20871 6.19353 5.30946 6.62298C5.41022 7.05244 5.63845 7.4414 5.96422 7.73883C5.36858 7.99618 4.8508 8.40516 4.4625 8.925C4.39282 9.01776 4.36284 9.13439 4.37915 9.24926C4.39545 9.36412 4.45671 9.4678 4.54945 9.5375ZM6.125 6.125C6.125 5.86541 6.20198 5.61165 6.3462 5.39581C6.49042 5.17997 6.6954 5.01175 6.93523 4.91241C7.17506 4.81307 7.43896 4.78708 7.69356 4.83772C7.94816 4.88836 8.18202 5.01337 8.36558 5.19692C8.54913 5.38048 8.67414 5.61434 8.72478 5.86894C8.77542 6.12354 8.74943 6.38744 8.65009 6.62727C8.55075 6.8671 8.38252 7.07208 8.16669 7.2163C7.95085 7.36052 7.69709 7.4375 7.4375 7.4375C7.0894 7.4375 6.75556 7.29922 6.50942 7.05308C6.26328 6.80694 6.125 6.4731 6.125 6.125ZM11.375 1.3125H3.5C3.26794 1.3125 3.04538 1.40469 2.88128 1.56878C2.71719 1.73288 2.625 1.95544 2.625 2.1875V3.5H1.75C1.63397 3.5 1.52269 3.54609 1.44064 3.62814C1.35859 3.71019 1.3125 3.82147 1.3125 3.9375C1.3125 4.05353 1.35859 4.16481 1.44064 4.24686C1.52269 4.32891 1.63397 4.375 1.75 4.375H2.625V6.5625H1.75C1.63397 6.5625 1.52269 6.60859 1.44064 6.69064C1.35859 6.77269 1.3125 6.88397 1.3125 7C1.3125 7.11603 1.35859 7.22731 1.44064 7.30936C1.52269 7.39141 1.63397 7.4375 1.75 7.4375H2.625V9.625H1.75C1.63397 9.625 1.52269 9.67109 1.44064 9.75314C1.35859 9.83519 1.3125 9.94647 1.3125 10.0625C1.3125 10.1785 1.35859 10.2898 1.44064 10.3719C1.52269 10.4539 1.63397 10.5 1.75 10.5H2.625V11.8125C2.625 12.0446 2.71719 12.2671 2.88128 12.4312C3.04538 12.5953 3.26794 12.6875 3.5 12.6875H11.375C11.6071 12.6875 11.8296 12.5953 11.9937 12.4312C12.1578 12.2671 12.25 12.0446 12.25 11.8125V2.1875C12.25 1.95544 12.1578 1.73288 11.9937 1.56878C11.8296 1.40469 11.6071 1.3125 11.375 1.3125ZM11.375 11.8125H3.5V2.1875H11.375V11.8125Z" fill="#333333"/>
</svg>
