<svg width="36" height="36" viewBox="0 0 36 36" fill="none" xmlns="http://www.w3.org/2000/svg">
<rect x="36" y="36" width="36" height="36" rx="18" transform="rotate(180 36 36)" fill="#F3F3F3"/>
<path d="M21.6584 27.9H21.6587C22.5418 27.903 23.3907 27.5754 24.0253 26.9878C24.6597 26.4003 25.03 25.5995 25.0589 24.7554L25.4089 14.5816C25.4156 14.3865 25.3415 14.1962 25.2014 14.0525C25.0612 13.9086 24.8663 13.8234 24.6595 13.8169C24.4526 13.8103 24.2522 13.883 24.1022 14.0178C23.9524 14.1525 23.8653 14.3379 23.8586 14.533L23.5085 24.706L23.5085 24.7063C23.4909 25.1685 23.2873 25.6052 22.9418 25.9249C22.5965 26.2444 22.1363 26.4221 21.6583 26.4218M21.6584 27.9L15.0074 26.3218M21.6584 27.9H15.0074L15.0071 27.9C14.1245 27.903 13.2762 27.5759 12.6417 26.989C12.0073 26.4022 11.6366 25.6021 11.6069 24.7587L11.2568 14.5816C11.2501 14.3865 11.3243 14.1962 11.4644 14.0525C11.6046 13.9086 11.7995 13.8234 12.0063 13.8169C12.2132 13.8103 12.4136 13.883 12.5636 14.0178C12.7134 14.1525 12.8005 14.3379 12.8072 14.533L12.9071 14.5295L12.8072 14.533L13.1573 24.7093L13.1573 24.7099C13.1758 25.1715 13.3799 25.6073 13.7252 25.9262C14.0705 26.2449 14.5301 26.4222 15.0075 26.4218M21.6584 27.9L15.0074 26.3218M21.6583 26.4218L21.6584 26.3218V26.4218H21.6583ZM21.6583 26.4218H15.0075M15.0075 26.4218L15.0074 26.3218M15.0075 26.4218H15.0074V26.3218M14.8015 10.2743L14.8015 10.2742L23.0778 11.2285V11.3285H23.078C23.078 11.3285 23.078 11.3285 23.0781 11.3285L25.7907 11.3285C25.9975 11.3285 26.1951 11.4075 26.3402 11.5468L26.4095 11.4747L26.3402 11.5468C26.4853 11.6862 26.5667 11.8741 26.5667 12.0689C26.5667 12.2639 26.486 12.4518 26.3411 12.5909C26.196 12.7303 25.9984 12.8092 25.7915 12.8092H10.8751C10.6683 12.8092 10.4707 12.7303 10.3256 12.5909C10.1806 12.4518 10.1 12.2639 10.1 12.0689C10.1 11.8739 10.1806 11.686 10.3256 11.5468C10.4707 11.4075 10.6683 11.3285 10.8751 11.3285L13.5877 11.3285L13.588 11.2285V11.3285H13.5878C13.8887 11.3293 14.1798 11.2226 14.4043 11.0282C14.6289 10.8337 14.7709 10.5651 14.8015 10.2743ZM16.1303 11.187L16.0656 11.3285H16.2212H20.4463H20.6018L20.5373 11.1871C20.4267 10.9443 20.3543 10.6872 20.3225 10.4241C20.298 10.1915 20.1845 9.97668 20.0054 9.82092C19.8262 9.66508 19.5938 9.57921 19.3534 9.57898H19.3533H17.3143L17.3142 9.57898C17.0738 9.57921 16.8414 9.66508 16.6621 9.82092C16.483 9.97666 16.3696 10.1914 16.345 10.424C16.313 10.6873 16.2411 10.9444 16.1303 11.187ZM17.0025 15.9354V23.0908V23.0941C17.0025 23.2892 16.9218 23.477 16.7769 23.6162C16.6318 23.7555 16.4342 23.8345 16.2274 23.8345C16.0205 23.8345 15.8229 23.7555 15.6778 23.6162C15.5329 23.477 15.4522 23.2892 15.4522 23.0941V15.9354C15.4522 15.7404 15.5329 15.5525 15.6778 15.4133C15.8229 15.274 16.0205 15.1951 16.2274 15.1951C16.4342 15.1951 16.6318 15.274 16.7769 15.4133C16.9218 15.5525 17.0025 15.7404 17.0025 15.9354ZM21.2153 15.9354V23.0908V23.0941C21.2153 23.2892 21.1347 23.477 20.9897 23.6162C20.8446 23.7555 20.647 23.8345 20.4402 23.8345C20.2333 23.8345 20.0357 23.7555 19.8906 23.6162C19.7457 23.477 19.6651 23.2892 19.6651 23.0941V15.9354C19.6651 15.7404 19.7457 15.5525 19.8906 15.4133C20.0357 15.274 20.2333 15.1951 20.4402 15.1951C20.647 15.1951 20.8446 15.274 20.9897 15.4133C21.1347 15.5525 21.2153 15.7404 21.2153 15.9354Z" fill="#E73A39" stroke="white" stroke-width="0.2"/>
</svg>
