<?xml version="1.0" encoding="UTF-8"?>
<svg version="1.1" xmlns="http://www.w3.org/2000/svg" width="32" height="32">
<path d="M0 0 C3.55247432 0.87379409 4.94828114 2.4927342 6.9375 5.4765625 C7.72948683 9.7616281 7.39969772 12.78326592 4.9375 16.4765625 C5.370625 16.87488281 5.80375 17.27320312 6.25 17.68359375 C6.806875 18.21339844 7.36375 18.74320313 7.9375 19.2890625 C8.494375 19.81113281 9.05125 20.33320313 9.625 20.87109375 C10.9375 22.4765625 10.9375 22.4765625 10.9375 25.4765625 C8.73838884 24.4555466 6.93291423 23.47274102 5.0625 21.9140625 C2.24301797 20.00676584 0.34298843 19.61011107 -3.0625 19.4765625 C-7.19312337 20.87677381 -10.13976662 22.24617298 -13.0625 25.4765625 C-13.7225 25.4765625 -14.3825 25.4765625 -15.0625 25.4765625 C-14.59047514 21.22833876 -12.09594482 19.27666541 -9.0625 16.4765625 C-9.7225 15.4865625 -10.3825 14.4965625 -11.0625 13.4765625 C-11.6118667 8.61074316 -11.79740373 6.5789181 -9.0625 2.4765625 C-5.73362371 0.25731164 -3.92313492 -0.28234683 0 0 Z M-5.3125 2.9765625 C-7.88468159 5.18128958 -8.40640719 7.19609846 -9.0625 10.4765625 C-8.72916667 12.80989583 -8.72916667 12.80989583 -7.0625 14.4765625 C-4.04447308 15.91996668 -2.11959061 16.71147153 1.1875 15.9765625 C3.75968159 13.77183542 4.28140719 11.75702654 4.9375 8.4765625 C4.60416667 6.14322917 4.60416667 6.14322917 2.9375 4.4765625 C-0.08052692 3.03315832 -2.00540939 2.24165347 -5.3125 2.9765625 Z " fill="#2E3F82" transform="translate(18.0625,2.5234375)"/>
</svg>
