<?xml version="1.0" encoding="UTF-8"?>
<svg version="1.1" xmlns="http://www.w3.org/2000/svg" width="32" height="32">
<path d="M0 0 C0.556875 0.185625 1.11375 0.37125 1.6875 0.5625 C4.41721945 1.07893341 6.31135581 0.62045635 9 0 C9.99 0 10.98 0 12 0 C12 0.66 12 1.32 12 2 C12.99 2.33 13.98 2.66 15 3 C15 9.27 15 15.54 15 22 C9.06 22 3.12 22 -3 22 C-3 15.73 -3 9.46 -3 3 C-2.01 2.67 -1.02 2.34 0 2 C0 1.34 0 0.68 0 0 Z M-1 4 C-1 9.61 -1 15.22 -1 21 C3.62 21 8.24 21 13 21 C12.67 20.01 12.34 19.02 12 18 C10.741875 18 9.48375 18 8.1875 18 C5.79166667 18 3.39583333 18 1 18 C0.67 17.34 0.34 16.68 0 16 C1.32 15.34 2.64 14.68 4 14 C3.34 13.67 2.68 13.34 2 13 C1.01 13.495 1.01 13.495 0 14 C0 13.34 0 12.68 0 12 C0.66 12 1.32 12 2 12 C2 11.34 2 10.68 2 10 C1.34 10 0.68 10 0 10 C0.66 8.68 1.32 7.36 2 6 C1.01 5.34 0.02 4.68 -1 4 Z M3 4 C2.67 4.66 2.34 5.32 2 6 C6.95 6.99 6.95 6.99 12 8 C12.33 6.68 12.66 5.36 13 4 C12.01 4.33 11.02 4.66 10 5 C7.37886292 5 5.49064888 4.68707555 3 4 Z M3 10 C3.33 10.66 3.66 11.32 4 12 C6.97 12 9.94 12 13 12 C13 11.34 13 10.68 13 10 C9.7 10 6.4 10 3 10 Z M12 14 C9.36 14.33 6.72 14.66 4 15 C4 15.33 4 15.66 4 16 C6.97 16 9.94 16 13 16 C12.67 15.34 12.34 14.68 12 14 Z " fill="#FFFFFF" transform="translate(10,5)"/>
</svg>
