<svg width="32" height="32" viewBox="0 0 32 32" fill="none" xmlns="http://www.w3.org/2000/svg">
<g clip-path="url(#clip0_19722_19217)">
<path d="M23.4129 25.4986L22.1959 24.2898C22.0376 24.1301 21.8484 24.0502 21.6283 24.0502C21.4082 24.0502 21.2183 24.1301 21.0588 24.2898C20.8992 24.4495 20.8195 24.6362 20.8195 24.85C20.8195 25.065 20.8992 25.2511 21.0588 25.4084L22.6541 26.9932C22.8842 27.2229 23.1433 27.3377 23.4314 27.3377C23.7183 27.3377 23.9774 27.2229 24.2087 26.9932L28.1006 23.1841C28.2602 23.0244 28.3461 22.842 28.3585 22.6368C28.3709 22.4292 28.2849 22.2345 28.1006 22.0526C27.9411 21.8942 27.7457 21.8149 27.5144 21.8149C27.2832 21.8149 27.0871 21.8948 26.9264 22.0545L23.4129 25.4986ZM6.06609 8.71638H23.6188C23.8822 8.71638 24.1023 8.62854 24.2792 8.45287C24.456 8.27719 24.5451 8.05789 24.5463 7.79499C24.5463 7.53208 24.2254 7.31279 23.5835 7.13712C22.9429 6.96144 22.562 6.8736 22.4408 6.8736H6.06609C5.80267 6.8736 5.58253 6.96144 5.40568 7.13712C5.22759 7.31279 5.13855 7.53208 5.13855 7.79499C5.13855 8.05667 5.22759 8.27596 5.40568 8.45287C5.58377 8.62977 5.8039 8.71761 6.06609 8.71638ZM24.5797 32C22.5132 32 20.7595 31.285 19.3187 29.855C17.878 28.425 17.1582 26.6829 17.1594 24.6289C17.1594 22.5772 17.8792 20.8358 19.3187 19.4045C20.7583 17.9733 22.5119 17.2577 24.5797 17.2577C26.6463 17.2577 28.3999 17.9733 29.8407 19.4045C31.2815 20.8358 32.0012 22.5772 32 24.6289C32 26.6829 31.2802 28.425 29.8407 29.855C28.3987 31.285 26.645 32 24.5797 32ZM0 30.8132V2.9761C0 2.15299 0.291865 1.45089 0.875594 0.869796C1.45932 0.289932 2.16611 0 2.99594 0H26.6852C27.5138 0 28.2206 0.289932 28.8056 0.869796C29.3893 1.44966 29.6812 2.15176 29.6812 2.9761V13.9315C29.3794 13.8209 29.0795 13.7263 28.7814 13.6477C28.4846 13.5691 28.1662 13.5076 27.8261 13.4634V2.97794C27.8261 2.69416 27.7074 2.43371 27.4699 2.1966C27.2312 1.96073 26.9697 1.84279 26.6852 1.84279H2.99594C2.7115 1.84279 2.44993 1.96073 2.21125 2.1966C1.9738 2.43371 1.85507 2.69354 1.85507 2.9761V27.7339H13.6237C13.7077 28.2376 13.8166 28.7303 13.9501 29.2119C14.0849 29.6934 14.2723 30.1529 14.5122 30.5903C14.4764 30.5976 14.4393 30.5921 14.4009 30.5737C14.3614 30.5565 14.3273 30.5338 14.2989 30.5055L12.7777 29.4551C12.6405 29.3667 12.4958 29.3224 12.3437 29.3224C12.1915 29.3224 12.0462 29.3673 11.9077 29.457L10.2808 30.5755C10.1435 30.6652 9.99884 30.7101 9.84672 30.7101C9.69461 30.7101 9.54929 30.6652 9.41078 30.5755L7.78388 29.457C7.64661 29.3673 7.50191 29.3224 7.3498 29.3224C7.19644 29.3224 7.05113 29.3673 6.91385 29.457L5.28696 30.5755C5.14844 30.6652 5.00313 30.7101 4.85101 30.7101C4.6989 30.7101 4.5542 30.6652 4.41693 30.5755L2.79003 29.457C2.65152 29.3673 2.5062 29.3224 2.35409 29.3224C2.20197 29.3224 2.05728 29.3673 1.92 29.457L0.471189 30.5755C0.399459 30.6234 0.242396 30.7015 0 30.8132ZM6.06609 22.6092H13.8741C13.9433 22.2713 14.0287 21.955 14.1301 21.6601C14.2327 21.3653 14.3521 21.0674 14.4881 20.7664H6.06609C5.80143 20.7664 5.58068 20.8548 5.40383 21.0317C5.22698 21.2086 5.13793 21.4273 5.1367 21.6878C5.1367 21.9507 5.22574 22.17 5.40383 22.3456C5.58068 22.5213 5.80267 22.6092 6.06609 22.6092ZM6.06423 15.6637H18.701C19.3045 15.1883 19.9532 14.7921 20.647 14.4751C21.3395 14.1569 22.0797 13.9388 22.8675 13.8209H6.06423C5.80081 13.8209 5.58068 13.9087 5.40383 14.0844C5.22574 14.2613 5.1367 14.4806 5.1367 14.7423C5.1367 15.004 5.22574 15.2233 5.40383 15.4002C5.58068 15.5759 5.80081 15.6637 6.06423 15.6637Z" fill="white"/>
</g>
<defs>
<clipPath id="clip0_19722_19217">
<rect width="32" height="32" fill="white"/>
</clipPath>
</defs>
</svg>
