<?xml version="1.0" encoding="UTF-8"?>
<svg version="1.1" xmlns="http://www.w3.org/2000/svg" width="32" height="32">
<path d="M0 0 C0.66 0 1.32 0 2 0 C2 0.66 2 1.32 2 2 C7.28 2 12.56 2 18 2 C18 1.34 18 0.68 18 0 C18.66 0 19.32 0 20 0 C20 0.66 20 1.32 20 2 C20.804375 1.979375 21.60875 1.95875 22.4375 1.9375 C25 2 25 2 26 3 C26.09993532 5.0605531 26.13080906 7.1245259 26.1328125 9.1875 C26.13474609 11.07082031 26.13474609 11.07082031 26.13671875 12.9921875 C26.13462402 13.64928711 26.1325293 14.30638672 26.13037109 14.98339844 C26.12502234 16.99161335 26.13031691 18.99960459 26.13671875 21.0078125 C26.13542969 22.26335938 26.13414063 23.51890625 26.1328125 24.8125 C26.13168457 25.97394531 26.13055664 27.13539062 26.12939453 28.33203125 C26 31 26 31 25 32 C22.79349344 32.10012401 20.58377614 32.1308118 18.375 32.1328125 C17.71290527 32.13376923 17.05081055 32.13472595 16.36865234 32.13571167 C14.96647039 32.13639326 13.5642853 32.13454042 12.16210938 32.13037109 C10.00904287 32.12502246 7.85618498 32.1303167 5.703125 32.13671875 C4.34374954 32.13605796 2.9843742 32.13477679 1.625 32.1328125 C0.37976563 32.13168457 -0.86546875 32.13055664 -2.1484375 32.12939453 C-5 32 -5 32 -6 31 C-6.09993532 28.9394469 -6.13080906 26.8754741 -6.1328125 24.8125 C-6.13410156 23.55695312 -6.13539063 22.30140625 -6.13671875 21.0078125 C-6.13462402 20.35071289 -6.1325293 19.69361328 -6.13037109 19.01660156 C-6.12502234 17.00838665 -6.13031691 15.00039541 -6.13671875 12.9921875 C-6.13542969 11.73664062 -6.13414062 10.48109375 -6.1328125 9.1875 C-6.13112061 7.44533203 -6.13112061 7.44533203 -6.12939453 5.66796875 C-6 3 -6 3 -5 2 C-3.33382885 1.95936168 -1.66611905 1.957279 0 2 C0 1.34 0 0.68 0 0 Z M-4 8 C-4.04125 11.25875 -4.0825 14.5175 -4.125 17.875 C-4.14320801 18.90093262 -4.16141602 19.92686523 -4.18017578 20.98388672 C-4.1851709 21.79100098 -4.19016602 22.59811523 -4.1953125 23.4296875 C-4.20578613 24.25710449 -4.21625977 25.08452148 -4.22705078 25.93701172 C-4.19302257 28.22398157 -4.19302257 28.22398157 -2 30 C0.489611 30.31108497 0.489611 30.31108497 3.375 30.265625 C4.44234375 30.26820312 5.5096875 30.27078125 6.609375 30.2734375 C7.72828125 30.26570313 8.8471875 30.25796875 10 30.25 C11.67835937 30.26160156 11.67835937 30.26160156 13.390625 30.2734375 C14.45796875 30.27085938 15.5253125 30.26828125 16.625 30.265625 C18.09839844 30.26224121 18.09839844 30.26224121 19.6015625 30.25878906 C22.18438497 30.23372863 22.18438497 30.23372863 24 28 C24.27714896 25.86747907 24.27714896 25.86747907 24.1953125 23.4296875 C24.19031738 22.62257324 24.18532227 21.81545898 24.18017578 20.98388672 C24.16196777 19.9579541 24.14375977 18.93202148 24.125 17.875 C24.08375 14.61625 24.0425 11.3575 24 8 C14.76 8 5.52 8 -4 8 Z " fill="#2E3F82" transform="translate(6,0)"/>
<path d="M0 0 C0.99 0 1.98 0 3 0 C2.61094382 2.72339328 1.93262433 4.08903214 0.25 6.3125 C-2 8 -2 8 -4.75 7.75 C-5.4925 7.5025 -6.235 7.255 -7 7 C-7.33 5.68 -7.66 4.36 -8 3 C-6.8553125 3.0928125 -6.8553125 3.0928125 -5.6875 3.1875 C-2.49347163 2.96466081 -2.0779007 2.26680076 0 0 Z " fill="#2E3F81" transform="translate(19,14)"/>
</svg>
