<svg width="32" height="32" viewBox="0 0 32 32" fill="none" xmlns="http://www.w3.org/2000/svg">
<g clip-path="url(#clip0_16355_3301)">
<path d="M7 0.03125C7.25693 0.03125 7.50333 0.133314 7.68501 0.31499C7.86669 0.496666 7.96875 0.743072 7.96875 1V2V2.03125H8H24H24.0312V2V1C24.0312 0.743071 24.1333 0.496666 24.315 0.31499C24.4967 0.133314 24.7431 0.03125 25 0.03125C25.2569 0.03125 25.5033 0.133314 25.685 0.31499C25.8667 0.496666 25.9688 0.743071 25.9688 1V2V2.03125H26H28C29.0526 2.03125 30.062 2.44939 30.8063 3.19367C31.5506 3.93795 31.9688 4.94742 31.9688 6V28C31.9688 29.0526 31.5506 30.062 30.8063 30.8063C30.062 31.5506 29.0526 31.9688 28 31.9688H4C2.94742 31.9688 1.93795 31.5506 1.19367 30.8063C0.449385 30.062 0.03125 29.0526 0.03125 28V6C0.03125 4.94742 0.449385 3.93795 1.19367 3.19367C1.93795 2.44939 2.94742 2.03125 4 2.03125H6H6.03125V2V1C6.03125 0.743072 6.13331 0.496666 6.31499 0.31499C6.49667 0.133314 6.74307 0.03125 7 0.03125ZM2 7.96875H1.96875V8V28C1.96875 28.5387 2.18276 29.0554 2.56369 29.4363C2.94462 29.8172 3.46128 30.0312 4 30.0312H28C28.5387 30.0312 29.0554 29.8172 29.4363 29.4363C29.8172 29.0554 30.0312 28.5387 30.0312 28V8V7.96875H30H2Z" fill="#2E3F83" stroke="#2E3F83" stroke-width="0.0625"/>
<path d="M21.6871 14.3144L21.6872 14.3144C21.7774 14.4044 21.849 14.5113 21.8978 14.629C21.9467 14.7467 21.9718 14.8729 21.9718 15.0003C21.9718 15.1277 21.9467 15.2539 21.8978 15.3716C21.849 15.4893 21.7774 15.5962 21.6872 15.6862L21.6872 15.6862L15.6872 21.6862L15.6871 21.6863C15.5971 21.7765 15.4902 21.848 15.3726 21.8969C15.2549 21.9457 15.1287 21.9709 15.0013 21.9709C14.8738 21.9709 14.7477 21.9457 14.63 21.8969C14.5123 21.848 14.4054 21.7765 14.3154 21.6863L14.3154 21.6862L11.3154 18.6862C11.2253 18.5962 11.1538 18.4892 11.1051 18.3715C11.0563 18.2538 11.0312 18.1277 11.0312 18.0003C11.0312 17.8729 11.0563 17.7468 11.1051 17.6291C11.1538 17.5114 11.2253 17.4045 11.3154 17.3144C11.4973 17.1325 11.744 17.0303 12.0013 17.0303C12.1286 17.0303 12.2548 17.0554 12.3725 17.1041C12.4902 17.1529 12.5971 17.2243 12.6872 17.3144L14.9792 19.6084L15.0013 19.6305L15.0234 19.6084L20.3154 14.3144L20.3154 14.3144C20.4054 14.2242 20.5123 14.1526 20.63 14.1038C20.7477 14.0549 20.8738 14.0298 21.0013 14.0298C21.1287 14.0298 21.2549 14.0549 21.3726 14.1038C21.4902 14.1526 21.5971 14.2242 21.6871 14.3144Z" fill="#2E3F83" stroke="#2E3F83" stroke-width="0.0625"/>
</g>
<defs>
<clipPath id="clip0_16355_3301">
<rect width="32" height="32" fill="white"/>
</clipPath>
</defs>
</svg>
