<svg width="1544" height="240" viewBox="0 0 1544 240" fill="none" xmlns="http://www.w3.org/2000/svg">
<rect width="1544" height="240" fill="white"/>
<path d="M30.6621 46.041H32.3613C33.3249 46.041 34.0671 45.849 34.5879 45.4648C35.1152 45.0807 35.3789 44.5469 35.3789 43.8633C35.3789 43.2122 35.1445 42.7077 34.6758 42.3496C34.207 41.985 33.5072 41.8027 32.5762 41.8027H30.6621V46.041ZM28.6602 40.0352H32.0781C32.4297 40.0352 32.7715 40.0449 33.1035 40.0645C33.4421 40.0775 33.7708 40.11 34.0898 40.1621C34.4089 40.2077 34.7116 40.2728 34.998 40.3574C35.291 40.4355 35.5645 40.543 35.8184 40.6797C36.0723 40.8164 36.3001 40.9792 36.502 41.168C36.7103 41.3503 36.8861 41.5684 37.0293 41.8223C37.179 42.0762 37.293 42.3691 37.3711 42.7012C37.4557 43.0332 37.498 43.4076 37.498 43.8242C37.498 44.2474 37.4232 44.6413 37.2734 45.0059C37.1237 45.3639 36.9186 45.6797 36.6582 45.9531C36.4043 46.2266 36.1016 46.4544 35.75 46.6367C35.3984 46.8125 35.0208 46.9329 34.6172 46.998V47.0371C34.7669 47.1022 34.9036 47.1738 35.0273 47.252C35.1576 47.3301 35.2682 47.418 35.3594 47.5156C35.5547 47.7109 35.763 48.0202 35.9844 48.4434L38.6211 54H36.3359L34.1973 49.1562C34.041 48.8242 33.8815 48.5671 33.7188 48.3848C33.556 48.196 33.3802 48.0592 33.1914 47.9746C33.0091 47.89 32.8105 47.8411 32.5957 47.8281C32.3809 47.8086 32.1367 47.7988 31.8633 47.7988H30.6621V54H28.6602V40.0352ZM47.4297 47.916C47.4297 47.5254 47.3711 47.1608 47.2539 46.8223C47.1432 46.4772 46.9805 46.1777 46.7656 45.9238C46.5508 45.6634 46.2839 45.4583 45.9648 45.3086C45.6523 45.1589 45.2943 45.084 44.8906 45.084C44.4219 45.084 44.0215 45.1719 43.6895 45.3477C43.3639 45.5169 43.0938 45.7383 42.8789 46.0117C42.6641 46.2852 42.498 46.5911 42.3809 46.9297C42.2637 47.2617 42.1855 47.5905 42.1465 47.916H47.4297ZM48.6504 53.5801C48.4616 53.6452 48.2663 53.7168 48.0645 53.7949C47.8691 53.8665 47.6445 53.9349 47.3906 54C47.1367 54.0716 46.8503 54.1302 46.5312 54.1758C46.2122 54.2214 45.8444 54.2441 45.4277 54.2441C44.5293 54.2441 43.748 54.1107 43.084 53.8438C42.4199 53.5768 41.8698 53.2025 41.4336 52.7207C40.9974 52.2389 40.6719 51.6595 40.457 50.9824C40.2487 50.2988 40.1445 49.5436 40.1445 48.7168C40.1445 47.9681 40.2585 47.278 40.4863 46.6465C40.7142 46.015 41.0365 45.4714 41.4531 45.0156C41.8763 44.5534 42.3809 44.1953 42.9668 43.9414C43.5527 43.6875 44.207 43.5605 44.9297 43.5605C45.776 43.5605 46.4857 43.707 47.0586 44C47.638 44.293 48.1003 44.6999 48.4453 45.2207C48.7969 45.735 49.0475 46.3438 49.1973 47.0469C49.347 47.7435 49.4219 48.502 49.4219 49.3223H42.1465C42.1465 49.8236 42.2376 50.2826 42.4199 50.6992C42.6022 51.1159 42.8464 51.474 43.1523 51.7734C43.4648 52.0729 43.8229 52.3073 44.2266 52.4766C44.6367 52.6393 45.0632 52.7207 45.5059 52.7207C45.8249 52.7207 46.1439 52.6849 46.4629 52.6133C46.7884 52.5417 47.0911 52.4538 47.3711 52.3496C47.6576 52.2454 47.9115 52.1348 48.1328 52.0176C48.3607 51.9004 48.5332 51.793 48.6504 51.6953V53.5801ZM53.2793 48.8633C53.2728 49.1302 53.2891 49.4102 53.3281 49.7031C53.3737 49.9961 53.4453 50.2858 53.543 50.5723C53.6406 50.8587 53.7643 51.1322 53.9141 51.3926C54.0703 51.653 54.2526 51.8809 54.4609 52.0762C54.6758 52.2715 54.9167 52.4277 55.1836 52.5449C55.457 52.6621 55.763 52.7207 56.1016 52.7207C56.6354 52.7207 57.0911 52.6035 57.4688 52.3691C57.8464 52.1283 58.1556 51.8255 58.3965 51.4609C58.6374 51.0898 58.8132 50.6797 58.9238 50.2305C59.041 49.7812 59.0996 49.3451 59.0996 48.9219C59.0996 48.4401 59.0378 47.9714 58.9141 47.5156C58.7904 47.0534 58.6016 46.6432 58.3477 46.2852C58.1003 45.9206 57.7878 45.6309 57.4102 45.416C57.0326 45.1947 56.5898 45.084 56.082 45.084C55.5742 45.084 55.138 45.1947 54.7734 45.416C54.4154 45.6309 54.1224 45.9173 53.8945 46.2754C53.6732 46.627 53.5104 47.0306 53.4062 47.4863C53.3086 47.9355 53.2663 48.3945 53.2793 48.8633ZM60.9746 58.1992H59.0996V52.6621H59.0605C58.7611 53.1504 58.3086 53.5345 57.7031 53.8145C57.0911 54.1009 56.4108 54.2441 55.6621 54.2441C54.8874 54.2441 54.2233 54.0879 53.6699 53.7754C53.1165 53.4564 52.6608 53.0397 52.3027 52.5254C51.9512 52.0046 51.6908 51.4154 51.5215 50.7578C51.3587 50.0938 51.2773 49.4134 51.2773 48.7168C51.2773 48.0332 51.3652 47.3822 51.541 46.7637C51.7233 46.1387 51.9967 45.5885 52.3613 45.1133C52.7324 44.638 53.1914 44.2604 53.7383 43.9805C54.2917 43.7005 54.9395 43.5605 55.6816 43.5605C56.1243 43.5605 56.5312 43.6126 56.9023 43.7168C57.2734 43.821 57.6055 43.9544 57.8984 44.1172C58.1914 44.2799 58.4421 44.4622 58.6504 44.6641C58.8587 44.8659 59.0215 45.0645 59.1387 45.2598H59.1777V43.8047H60.9746V58.1992ZM73.2012 54H71.3848V52.3789H71.3457C71.0592 52.9714 70.6133 53.4303 70.0078 53.7559C69.3893 54.0814 68.722 54.2441 68.0059 54.2441C66.6908 54.2441 65.724 53.8568 65.1055 53.082C64.4935 52.3138 64.1875 51.2396 64.1875 49.8594V43.8047H66.0625V49.0781C66.0625 50.276 66.2155 51.1712 66.5215 51.7637C66.834 52.3561 67.4036 52.6751 68.2305 52.7207C68.7643 52.7207 69.2266 52.6198 69.6172 52.418C70.0078 52.2096 70.3301 51.9199 70.584 51.5488C70.8379 51.1777 71.0234 50.735 71.1406 50.2207C71.2643 49.7064 71.3262 49.14 71.3262 48.5215V43.8047H73.2012V54ZM83.0156 47.916C83.0156 47.5254 82.957 47.1608 82.8398 46.8223C82.7292 46.4772 82.5664 46.1777 82.3516 45.9238C82.1367 45.6634 81.8698 45.4583 81.5508 45.3086C81.2383 45.1589 80.8802 45.084 80.4766 45.084C80.0078 45.084 79.6074 45.1719 79.2754 45.3477C78.9499 45.5169 78.6797 45.7383 78.4648 46.0117C78.25 46.2852 78.084 46.5911 77.9668 46.9297C77.8496 47.2617 77.7715 47.5905 77.7324 47.916H83.0156ZM84.2363 53.5801C84.0475 53.6452 83.8522 53.7168 83.6504 53.7949C83.4551 53.8665 83.2305 53.9349 82.9766 54C82.7227 54.0716 82.4362 54.1302 82.1172 54.1758C81.7982 54.2214 81.4303 54.2441 81.0137 54.2441C80.1152 54.2441 79.334 54.1107 78.6699 53.8438C78.0059 53.5768 77.4557 53.2025 77.0195 52.7207C76.5833 52.2389 76.2578 51.6595 76.043 50.9824C75.8346 50.2988 75.7305 49.5436 75.7305 48.7168C75.7305 47.9681 75.8444 47.278 76.0723 46.6465C76.3001 46.015 76.6224 45.4714 77.0391 45.0156C77.4622 44.5534 77.9668 44.1953 78.5527 43.9414C79.1387 43.6875 79.793 43.5605 80.5156 43.5605C81.362 43.5605 82.0716 43.707 82.6445 44C83.224 44.293 83.6862 44.6999 84.0312 45.2207C84.3828 45.735 84.6335 46.3438 84.7832 47.0469C84.9329 47.7435 85.0078 48.502 85.0078 49.3223H77.7324C77.7324 49.8236 77.8236 50.2826 78.0059 50.6992C78.1882 51.1159 78.4323 51.474 78.7383 51.7734C79.0508 52.0729 79.4089 52.3073 79.8125 52.4766C80.2227 52.6393 80.6491 52.7207 81.0918 52.7207C81.4108 52.7207 81.7298 52.6849 82.0488 52.6133C82.3743 52.5417 82.6771 52.4538 82.957 52.3496C83.2435 52.2454 83.4974 52.1348 83.7188 52.0176C83.9466 51.9004 84.1191 51.793 84.2363 51.6953V53.5801ZM86.7852 51.998C86.974 52.1217 87.1758 52.2292 87.3906 52.3203C87.6055 52.4115 87.8171 52.4863 88.0254 52.5449C88.2402 52.6035 88.4421 52.6491 88.6309 52.6816C88.8262 52.7077 88.9922 52.7207 89.1289 52.7207C89.3372 52.7207 89.5553 52.6979 89.7832 52.6523C90.0111 52.6068 90.2161 52.5286 90.3984 52.418C90.5872 52.3008 90.7402 52.151 90.8574 51.9688C90.9811 51.7799 91.043 51.5423 91.043 51.2559C91.043 51.028 90.9779 50.8262 90.8477 50.6504C90.724 50.4746 90.5579 50.3151 90.3496 50.1719C90.1478 50.0221 89.9134 49.8854 89.6465 49.7617C89.3796 49.6315 89.1094 49.498 88.8359 49.3613C88.5625 49.2181 88.2923 49.0684 88.0254 48.9121C87.7585 48.7493 87.5208 48.5638 87.3125 48.3555C87.1107 48.1471 86.9447 47.9095 86.8145 47.6426C86.6908 47.3691 86.6289 47.0534 86.6289 46.6953C86.6289 46.168 86.7201 45.709 86.9023 45.3184C87.0846 44.9212 87.3353 44.5924 87.6543 44.332C87.9798 44.0716 88.3607 43.8796 88.7969 43.7559C89.2396 43.6257 89.7148 43.5605 90.2227 43.5605C90.6719 43.5605 91.082 43.6029 91.4531 43.6875C91.8242 43.7656 92.1953 43.8568 92.5664 43.9609L92.4102 45.6016C92.2995 45.5365 92.153 45.4746 91.9707 45.416C91.7949 45.3509 91.6094 45.2956 91.4141 45.25C91.2188 45.1979 91.0299 45.1589 90.8477 45.1328C90.6719 45.1003 90.5319 45.084 90.4277 45.084C89.9395 45.084 89.5163 45.1849 89.1582 45.3867C88.8001 45.582 88.6211 45.8945 88.6211 46.3242C88.6211 46.5846 88.6829 46.8092 88.8066 46.998C88.9368 47.1803 89.1061 47.3431 89.3145 47.4863C89.5228 47.623 89.7572 47.7533 90.0176 47.877C90.2845 47.9941 90.5547 48.1211 90.8281 48.2578C91.1016 48.388 91.3717 48.5312 91.6387 48.6875C91.9056 48.8372 92.14 49.0195 92.3418 49.2344C92.5501 49.4492 92.7194 49.7064 92.8496 50.0059C92.9798 50.2988 93.0449 50.6504 93.0449 51.0605C93.0449 51.6074 92.944 52.0827 92.7422 52.4863C92.5404 52.8835 92.2734 53.2122 91.9414 53.4727C91.6094 53.7331 91.2285 53.9251 90.7988 54.0488C90.3757 54.179 89.9362 54.2441 89.4805 54.2441C89.0052 54.2441 88.5267 54.2051 88.0449 54.127C87.5697 54.0553 87.1172 53.9056 86.6875 53.6777L86.7852 51.998ZM100.76 45.3184H98.0547V50.9043C98.0547 51.5098 98.2109 51.9622 98.5234 52.2617C98.849 52.5677 99.2201 52.7207 99.6367 52.7207C99.9297 52.7207 100.18 52.6849 100.389 52.6133C100.597 52.5352 100.773 52.4505 100.916 52.3594V53.9609C100.701 54.026 100.457 54.0879 100.184 54.1465C99.9167 54.2116 99.627 54.2441 99.3145 54.2441C98.3379 54.2441 97.5729 54.0065 97.0195 53.5312C96.4596 53.0495 96.1797 52.2975 96.1797 51.2754V45.3184H93.875V43.8047H96.1797V41.4414L98.0547 40.8359V43.8047H100.76V45.3184ZM108.875 40.0352H110.877V54H108.875V40.0352ZM114.266 43.8047H116.082V45.416H116.121C116.408 44.8236 116.854 44.3678 117.459 44.0488C118.077 43.7233 118.745 43.5605 119.461 43.5605C120.776 43.5605 121.743 43.9479 122.361 44.7227C122.973 45.4909 123.279 46.5618 123.279 47.9355V54H121.404V48.7168C121.404 47.5254 121.251 46.6335 120.945 46.041C120.639 45.4486 120.073 45.1296 119.246 45.084C118.706 45.084 118.24 45.1882 117.85 45.3965C117.459 45.5983 117.137 45.8848 116.883 46.2559C116.629 46.627 116.44 47.0697 116.316 47.584C116.199 48.0983 116.141 48.6647 116.141 49.2832V54H114.266V43.8047ZM128.729 41.5195H126.609V39.4004H128.729V41.5195ZM126.727 43.8047H128.611V54H126.727V43.8047ZM137.479 45.3184H134.773V50.9043C134.773 51.5098 134.93 51.9622 135.242 52.2617C135.568 52.5677 135.939 52.7207 136.355 52.7207C136.648 52.7207 136.899 52.6849 137.107 52.6133C137.316 52.5352 137.492 52.4505 137.635 52.3594V53.9609C137.42 54.026 137.176 54.0879 136.902 54.1465C136.635 54.2116 136.346 54.2441 136.033 54.2441C135.057 54.2441 134.292 54.0065 133.738 53.5312C133.178 53.0495 132.898 52.2975 132.898 51.2754V45.3184H130.594V43.8047H132.898V41.4414L134.773 40.8359V43.8047H137.479V45.3184ZM142.088 41.5195H139.969V39.4004H142.088V41.5195ZM140.086 43.8047H141.971V54H140.086V43.8047ZM151.473 49.1367C151.277 49.1367 151.079 49.1302 150.877 49.1172C150.675 49.1042 150.477 49.0977 150.281 49.0977C150.151 49.0977 150.005 49.1042 149.842 49.1172C149.679 49.1237 149.497 49.1335 149.295 49.1465C148.904 49.1725 148.514 49.2572 148.123 49.4004C147.745 49.5241 147.42 49.7194 147.146 49.9863C146.873 50.2533 146.736 50.6113 146.736 51.0605C146.736 51.3275 146.795 51.5651 146.912 51.7734C147.029 51.9753 147.179 52.1478 147.361 52.291C147.55 52.4277 147.755 52.5352 147.977 52.6133C148.204 52.6849 148.426 52.7207 148.641 52.7207C149.572 52.7207 150.275 52.4635 150.75 51.9492C151.232 51.4284 151.473 50.7904 151.473 50.0352V49.1367ZM145.896 44.5176C146.365 44.2376 146.88 44.0098 147.439 43.834C147.999 43.6517 148.605 43.5605 149.256 43.5605C150.721 43.5605 151.769 43.9154 152.4 44.625C153.038 45.3346 153.357 46.3861 153.357 47.7793V51.998C153.357 52.584 153.364 53.0267 153.377 53.3262C153.39 53.6257 153.41 53.8503 153.436 54H151.678V52.6816H151.639C151.528 52.8379 151.382 53.0072 151.199 53.1895C151.017 53.3717 150.792 53.541 150.525 53.6973C150.265 53.8535 149.962 53.9837 149.617 54.0879C149.279 54.1921 148.898 54.2441 148.475 54.2441C147.928 54.2441 147.423 54.1823 146.961 54.0586C146.505 53.9414 146.111 53.7526 145.779 53.4922C145.447 53.2318 145.19 52.903 145.008 52.5059C144.826 52.1022 144.734 51.6204 144.734 51.0605C144.734 50.7415 144.773 50.4486 144.852 50.1816C144.936 49.9147 145.05 49.6738 145.193 49.459C145.343 49.2441 145.519 49.0521 145.721 48.8828C145.923 48.7135 146.141 48.5638 146.375 48.4336C146.844 48.1732 147.358 47.9876 147.918 47.877C148.471 47.7598 148.992 47.7012 149.48 47.7012H150.477C150.626 47.7012 150.783 47.7044 150.945 47.7109C151.108 47.7174 151.284 47.7272 151.473 47.7402C151.473 46.8613 151.29 46.2005 150.926 45.7578C150.561 45.3086 149.904 45.084 148.953 45.084C148.419 45.084 147.889 45.1784 147.361 45.3672C146.84 45.5495 146.385 45.8001 145.994 46.1191L145.896 44.5176ZM161.971 45.3184H159.266V50.9043C159.266 51.5098 159.422 51.9622 159.734 52.2617C160.06 52.5677 160.431 52.7207 160.848 52.7207C161.141 52.7207 161.391 52.6849 161.6 52.6133C161.808 52.5352 161.984 52.4505 162.127 52.3594V53.9609C161.912 54.026 161.668 54.0879 161.395 54.1465C161.128 54.2116 160.838 54.2441 160.525 54.2441C159.549 54.2441 158.784 54.0065 158.23 53.5312C157.671 53.0495 157.391 52.2975 157.391 51.2754V45.3184H155.086V43.8047H157.391V41.4414L159.266 40.8359V43.8047H161.971V45.3184ZM170.945 47.916C170.945 47.5254 170.887 47.1608 170.77 46.8223C170.659 46.4772 170.496 46.1777 170.281 45.9238C170.066 45.6634 169.799 45.4583 169.48 45.3086C169.168 45.1589 168.81 45.084 168.406 45.084C167.938 45.084 167.537 45.1719 167.205 45.3477C166.88 45.5169 166.609 45.7383 166.395 46.0117C166.18 46.2852 166.014 46.5911 165.896 46.9297C165.779 47.2617 165.701 47.5905 165.662 47.916H170.945ZM172.166 53.5801C171.977 53.6452 171.782 53.7168 171.58 53.7949C171.385 53.8665 171.16 53.9349 170.906 54C170.652 54.0716 170.366 54.1302 170.047 54.1758C169.728 54.2214 169.36 54.2441 168.943 54.2441C168.045 54.2441 167.264 54.1107 166.6 53.8438C165.936 53.5768 165.385 53.2025 164.949 52.7207C164.513 52.2389 164.188 51.6595 163.973 50.9824C163.764 50.2988 163.66 49.5436 163.66 48.7168C163.66 47.9681 163.774 47.278 164.002 46.6465C164.23 46.015 164.552 45.4714 164.969 45.0156C165.392 44.5534 165.896 44.1953 166.482 43.9414C167.068 43.6875 167.723 43.5605 168.445 43.5605C169.292 43.5605 170.001 43.707 170.574 44C171.154 44.293 171.616 44.6999 171.961 45.2207C172.312 45.735 172.563 46.3438 172.713 47.0469C172.863 47.7435 172.938 48.502 172.938 49.3223H165.662C165.662 49.8236 165.753 50.2826 165.936 50.6992C166.118 51.1159 166.362 51.474 166.668 51.7734C166.98 52.0729 167.339 52.3073 167.742 52.4766C168.152 52.6393 168.579 52.7207 169.021 52.7207C169.34 52.7207 169.66 52.6849 169.979 52.6133C170.304 52.5417 170.607 52.4538 170.887 52.3496C171.173 52.2454 171.427 52.1348 171.648 52.0176C171.876 51.9004 172.049 51.793 172.166 51.6953V53.5801ZM176.795 48.8633C176.788 49.1302 176.805 49.4102 176.844 49.7031C176.889 49.9961 176.961 50.2858 177.059 50.5723C177.156 50.8587 177.28 51.1322 177.43 51.3926C177.586 51.653 177.768 51.8809 177.977 52.0762C178.191 52.2715 178.432 52.4277 178.699 52.5449C178.973 52.6621 179.279 52.7207 179.617 52.7207C180.151 52.7207 180.607 52.6035 180.984 52.3691C181.362 52.1283 181.671 51.8255 181.912 51.4609C182.153 51.0898 182.329 50.6797 182.439 50.2305C182.557 49.7812 182.615 49.3451 182.615 48.9219C182.615 48.4401 182.553 47.9714 182.43 47.5156C182.306 47.0534 182.117 46.6432 181.863 46.2852C181.616 45.9206 181.303 45.6309 180.926 45.416C180.548 45.1947 180.105 45.084 179.598 45.084C179.09 45.084 178.654 45.1947 178.289 45.416C177.931 45.6309 177.638 45.9173 177.41 46.2754C177.189 46.627 177.026 47.0306 176.922 47.4863C176.824 47.9355 176.782 48.3945 176.795 48.8633ZM182.693 52.5645H182.654C182.537 52.7533 182.371 52.9453 182.156 53.1406C181.948 53.3359 181.697 53.5182 181.404 53.6875C181.111 53.8503 180.779 53.9837 180.408 54.0879C180.037 54.1921 179.627 54.2441 179.178 54.2441C178.403 54.2441 177.739 54.0879 177.186 53.7754C176.632 53.4564 176.176 53.0397 175.818 52.5254C175.467 52.0046 175.206 51.4154 175.037 50.7578C174.874 50.0938 174.793 49.4134 174.793 48.7168C174.793 48.0332 174.881 47.3822 175.057 46.7637C175.239 46.1387 175.512 45.5885 175.877 45.1133C176.248 44.638 176.707 44.2604 177.254 43.9805C177.807 43.7005 178.455 43.5605 179.197 43.5605C180.083 43.5605 180.796 43.7168 181.336 44.0293C181.87 44.3418 182.283 44.7324 182.576 45.2012H182.615V39H184.49V54H182.693V52.5645Z" fill="#333333"/>
<path d="M678.637 49.2188C678.637 50.2083 678.516 51.0775 678.275 51.8262C678.041 52.5749 677.693 53.2031 677.23 53.7109C676.768 54.2188 676.199 54.6029 675.521 54.8633C674.851 55.1172 674.083 55.2441 673.217 55.2441C671.485 55.2441 670.147 54.7331 669.203 53.7109C668.266 52.6888 667.797 51.1914 667.797 49.2188V41.0352H669.799V48.9648C669.799 49.6289 669.854 50.2376 669.965 50.791C670.082 51.3444 670.274 51.8197 670.541 52.2168C670.808 52.6139 671.16 52.9232 671.596 53.1445C672.032 53.3659 672.572 53.4766 673.217 53.4766C673.861 53.4766 674.402 53.3659 674.838 53.1445C675.281 52.9232 675.635 52.6139 675.902 52.2168C676.169 51.8197 676.358 51.3444 676.469 50.791C676.586 50.2376 676.645 49.6289 676.645 48.9648V41.0352H678.637V49.2188ZM682.055 44.8047H683.871V46.416H683.91C684.197 45.8236 684.643 45.3678 685.248 45.0488C685.867 44.7233 686.534 44.5605 687.25 44.5605C688.565 44.5605 689.532 44.9479 690.15 45.7227C690.762 46.4909 691.068 47.5618 691.068 48.9355V55H689.193V49.7168C689.193 48.5254 689.04 47.6335 688.734 47.041C688.428 46.4486 687.862 46.1296 687.035 46.084C686.495 46.084 686.029 46.1882 685.639 46.3965C685.248 46.5983 684.926 46.8848 684.672 47.2559C684.418 47.627 684.229 48.0697 684.105 48.584C683.988 49.0983 683.93 49.6647 683.93 50.2832V55H682.055V44.8047ZM695.6 49.8633C695.593 50.1302 695.609 50.4102 695.648 50.7031C695.694 50.9961 695.766 51.2858 695.863 51.5723C695.961 51.8587 696.085 52.1322 696.234 52.3926C696.391 52.653 696.573 52.8809 696.781 53.0762C696.996 53.2715 697.237 53.4277 697.504 53.5449C697.777 53.6621 698.083 53.7207 698.422 53.7207C698.956 53.7207 699.411 53.6035 699.789 53.3691C700.167 53.1283 700.476 52.8255 700.717 52.4609C700.958 52.0898 701.133 51.6797 701.244 51.2305C701.361 50.7812 701.42 50.3451 701.42 49.9219C701.42 49.4401 701.358 48.9714 701.234 48.5156C701.111 48.0534 700.922 47.6432 700.668 47.2852C700.421 46.9206 700.108 46.6309 699.73 46.416C699.353 46.1947 698.91 46.084 698.402 46.084C697.895 46.084 697.458 46.1947 697.094 46.416C696.736 46.6309 696.443 46.9173 696.215 47.2754C695.993 47.627 695.831 48.0306 695.727 48.4863C695.629 48.9355 695.587 49.3945 695.6 49.8633ZM701.498 53.5645H701.459C701.342 53.7533 701.176 53.9453 700.961 54.1406C700.753 54.3359 700.502 54.5182 700.209 54.6875C699.916 54.8503 699.584 54.9837 699.213 55.0879C698.842 55.1921 698.432 55.2441 697.982 55.2441C697.208 55.2441 696.544 55.0879 695.99 54.7754C695.437 54.4564 694.981 54.0397 694.623 53.5254C694.271 53.0046 694.011 52.4154 693.842 51.7578C693.679 51.0938 693.598 50.4134 693.598 49.7168C693.598 49.0332 693.686 48.3822 693.861 47.7637C694.044 47.1387 694.317 46.5885 694.682 46.1133C695.053 45.638 695.512 45.2604 696.059 44.9805C696.612 44.7005 697.26 44.5605 698.002 44.5605C698.887 44.5605 699.6 44.7168 700.141 45.0293C700.674 45.3418 701.088 45.7324 701.381 46.2012H701.42V40H703.295V55H701.498V53.5645ZM713.109 48.916C713.109 48.5254 713.051 48.1608 712.934 47.8223C712.823 47.4772 712.66 47.1777 712.445 46.9238C712.23 46.6634 711.964 46.4583 711.645 46.3086C711.332 46.1589 710.974 46.084 710.57 46.084C710.102 46.084 709.701 46.1719 709.369 46.3477C709.044 46.5169 708.773 46.7383 708.559 47.0117C708.344 47.2852 708.178 47.5911 708.061 47.9297C707.943 48.2617 707.865 48.5905 707.826 48.916H713.109ZM714.33 54.5801C714.141 54.6452 713.946 54.7168 713.744 54.7949C713.549 54.8665 713.324 54.9349 713.07 55C712.816 55.0716 712.53 55.1302 712.211 55.1758C711.892 55.2214 711.524 55.2441 711.107 55.2441C710.209 55.2441 709.428 55.1107 708.764 54.8438C708.1 54.5768 707.549 54.2025 707.113 53.7207C706.677 53.2389 706.352 52.6595 706.137 51.9824C705.928 51.2988 705.824 50.5436 705.824 49.7168C705.824 48.9681 705.938 48.278 706.166 47.6465C706.394 47.015 706.716 46.4714 707.133 46.0156C707.556 45.5534 708.061 45.1953 708.646 44.9414C709.232 44.6875 709.887 44.5605 710.609 44.5605C711.456 44.5605 712.165 44.707 712.738 45C713.318 45.293 713.78 45.6999 714.125 46.2207C714.477 46.735 714.727 47.3438 714.877 48.0469C715.027 48.7435 715.102 49.502 715.102 50.3223H707.826C707.826 50.8236 707.917 51.2826 708.1 51.6992C708.282 52.1159 708.526 52.474 708.832 52.7734C709.145 53.0729 709.503 53.3073 709.906 53.4766C710.316 53.6393 710.743 53.7207 711.186 53.7207C711.505 53.7207 711.824 53.6849 712.143 53.6133C712.468 53.5417 712.771 53.4538 713.051 53.3496C713.337 53.2454 713.591 53.1348 713.812 53.0176C714.04 52.9004 714.213 52.793 714.33 52.6953V54.5801ZM717.641 44.8047H719.398V46.377H719.438C719.685 45.8496 720.056 45.4134 720.551 45.0684C721.033 44.7298 721.55 44.5605 722.104 44.5605C722.383 44.5605 722.608 44.5736 722.777 44.5996C722.953 44.6257 723.142 44.6582 723.344 44.6973V46.377C723.168 46.3118 722.989 46.2663 722.807 46.2402C722.631 46.2142 722.462 46.2012 722.299 46.2012C721.459 46.2012 720.785 46.5755 720.277 47.3242C719.77 48.0664 719.516 49.0788 719.516 50.3613V55H717.641V44.8047ZM731.156 41.0352H733.158V53.2422H738.998V55H731.156V41.0352ZM747.602 48.916C747.602 48.5254 747.543 48.1608 747.426 47.8223C747.315 47.4772 747.152 47.1777 746.938 46.9238C746.723 46.6634 746.456 46.4583 746.137 46.3086C745.824 46.1589 745.466 46.084 745.062 46.084C744.594 46.084 744.193 46.1719 743.861 46.3477C743.536 46.5169 743.266 46.7383 743.051 47.0117C742.836 47.2852 742.67 47.5911 742.553 47.9297C742.436 48.2617 742.357 48.5905 742.318 48.916H747.602ZM748.822 54.5801C748.633 54.6452 748.438 54.7168 748.236 54.7949C748.041 54.8665 747.816 54.9349 747.562 55C747.309 55.0716 747.022 55.1302 746.703 55.1758C746.384 55.2214 746.016 55.2441 745.6 55.2441C744.701 55.2441 743.92 55.1107 743.256 54.8438C742.592 54.5768 742.042 54.2025 741.605 53.7207C741.169 53.2389 740.844 52.6595 740.629 51.9824C740.421 51.2988 740.316 50.5436 740.316 49.7168C740.316 48.9681 740.43 48.278 740.658 47.6465C740.886 47.015 741.208 46.4714 741.625 46.0156C742.048 45.5534 742.553 45.1953 743.139 44.9414C743.725 44.6875 744.379 44.5605 745.102 44.5605C745.948 44.5605 746.658 44.707 747.23 45C747.81 45.293 748.272 45.6999 748.617 46.2207C748.969 46.735 749.219 47.3438 749.369 48.0469C749.519 48.7435 749.594 49.502 749.594 50.3223H742.318C742.318 50.8236 742.41 51.2826 742.592 51.6992C742.774 52.1159 743.018 52.474 743.324 52.7734C743.637 53.0729 743.995 53.3073 744.398 53.4766C744.809 53.6393 745.235 53.7207 745.678 53.7207C745.997 53.7207 746.316 53.6849 746.635 53.6133C746.96 53.5417 747.263 53.4538 747.543 53.3496C747.829 53.2454 748.083 53.1348 748.305 53.0176C748.533 52.9004 748.705 52.793 748.822 52.6953V54.5801ZM758.188 50.1367C757.992 50.1367 757.794 50.1302 757.592 50.1172C757.39 50.1042 757.191 50.0977 756.996 50.0977C756.866 50.0977 756.719 50.1042 756.557 50.1172C756.394 50.1237 756.212 50.1335 756.01 50.1465C755.619 50.1725 755.229 50.2572 754.838 50.4004C754.46 50.5241 754.135 50.7194 753.861 50.9863C753.588 51.2533 753.451 51.6113 753.451 52.0605C753.451 52.3275 753.51 52.5651 753.627 52.7734C753.744 52.9753 753.894 53.1478 754.076 53.291C754.265 53.4277 754.47 53.5352 754.691 53.6133C754.919 53.6849 755.141 53.7207 755.355 53.7207C756.286 53.7207 756.99 53.4635 757.465 52.9492C757.947 52.4284 758.188 51.7904 758.188 51.0352V50.1367ZM752.611 45.5176C753.08 45.2376 753.594 45.0098 754.154 44.834C754.714 44.6517 755.32 44.5605 755.971 44.5605C757.436 44.5605 758.484 44.9154 759.115 45.625C759.753 46.3346 760.072 47.3861 760.072 48.7793V52.998C760.072 53.584 760.079 54.0267 760.092 54.3262C760.105 54.6257 760.124 54.8503 760.15 55H758.393V53.6816H758.354C758.243 53.8379 758.096 54.0072 757.914 54.1895C757.732 54.3717 757.507 54.541 757.24 54.6973C756.98 54.8535 756.677 54.9837 756.332 55.0879C755.993 55.1921 755.613 55.2441 755.189 55.2441C754.643 55.2441 754.138 55.1823 753.676 55.0586C753.22 54.9414 752.826 54.7526 752.494 54.4922C752.162 54.2318 751.905 53.903 751.723 53.5059C751.54 53.1022 751.449 52.6204 751.449 52.0605C751.449 51.7415 751.488 51.4486 751.566 51.1816C751.651 50.9147 751.765 50.6738 751.908 50.459C752.058 50.2441 752.234 50.0521 752.436 49.8828C752.637 49.7135 752.855 49.5638 753.09 49.4336C753.559 49.1732 754.073 48.9876 754.633 48.877C755.186 48.7598 755.707 48.7012 756.195 48.7012H757.191C757.341 48.7012 757.497 48.7044 757.66 48.7109C757.823 48.7174 757.999 48.7272 758.188 48.7402C758.188 47.8613 758.005 47.2005 757.641 46.7578C757.276 46.3086 756.618 46.084 755.668 46.084C755.134 46.084 754.604 46.1784 754.076 46.3672C753.555 46.5495 753.1 46.8001 752.709 47.1191L752.611 45.5176ZM763.266 44.8047H765.023V46.377H765.062C765.31 45.8496 765.681 45.4134 766.176 45.0684C766.658 44.7298 767.175 44.5605 767.729 44.5605C768.008 44.5605 768.233 44.5736 768.402 44.5996C768.578 44.6257 768.767 44.6582 768.969 44.6973V46.377C768.793 46.3118 768.614 46.2663 768.432 46.2402C768.256 46.2142 768.087 46.2012 767.924 46.2012C767.084 46.2012 766.41 46.5755 765.902 47.3242C765.395 48.0664 765.141 49.0788 765.141 50.3613V55H763.266V44.8047ZM771.059 44.8047H772.875V46.416H772.914C773.201 45.8236 773.646 45.3678 774.252 45.0488C774.87 44.7233 775.538 44.5605 776.254 44.5605C777.569 44.5605 778.536 44.9479 779.154 45.7227C779.766 46.4909 780.072 47.5618 780.072 48.9355V55H778.197V49.7168C778.197 48.5254 778.044 47.6335 777.738 47.041C777.432 46.4486 776.866 46.1296 776.039 46.084C775.499 46.084 775.033 46.1882 774.643 46.3965C774.252 46.5983 773.93 46.8848 773.676 47.2559C773.422 47.627 773.233 48.0697 773.109 48.584C772.992 49.0983 772.934 49.6647 772.934 50.2832V55H771.059V44.8047ZM785.521 42.5195H783.402V40.4004H785.521V42.5195ZM783.52 44.8047H785.404V55H783.52V44.8047ZM788.852 44.8047H790.668V46.416H790.707C790.993 45.8236 791.439 45.3678 792.045 45.0488C792.663 44.7233 793.331 44.5605 794.047 44.5605C795.362 44.5605 796.329 44.9479 796.947 45.7227C797.559 46.4909 797.865 47.5618 797.865 48.9355V55H795.99V49.7168C795.99 48.5254 795.837 47.6335 795.531 47.041C795.225 46.4486 794.659 46.1296 793.832 46.084C793.292 46.084 792.826 46.1882 792.436 46.3965C792.045 46.5983 791.723 46.8848 791.469 47.2559C791.215 47.627 791.026 48.0697 790.902 48.584C790.785 49.0983 790.727 49.6647 790.727 50.2832V55H788.852V44.8047ZM805.238 53.4766C805.674 53.4766 806.075 53.3887 806.439 53.2129C806.811 53.0306 807.126 52.7832 807.387 52.4707C807.647 52.1582 807.849 51.7936 807.992 51.377C808.142 50.9538 808.217 50.5013 808.217 50.0195C808.217 49.4922 808.155 48.9909 808.031 48.5156C807.908 48.0339 807.719 47.6139 807.465 47.2559C807.217 46.8978 806.908 46.6146 806.537 46.4062C806.166 46.1914 805.733 46.084 805.238 46.084C804.763 46.084 804.346 46.2012 803.988 46.4355C803.637 46.6634 803.34 46.9629 803.1 47.334C802.865 47.6986 802.689 48.1055 802.572 48.5547C802.455 49.0039 802.396 49.4466 802.396 49.8828C802.396 50.3646 802.462 50.8236 802.592 51.2598C802.722 51.6895 802.908 52.0703 803.148 52.4023C803.396 52.7279 803.695 52.9883 804.047 53.1836C804.398 53.3789 804.796 53.4766 805.238 53.4766ZM810.092 54.5605C810.092 56.1165 809.672 57.3177 808.832 58.1641C807.992 59.0169 806.661 59.4434 804.838 59.4434C804.571 59.4434 804.307 59.4336 804.047 59.4141C803.786 59.3945 803.51 59.3587 803.217 59.3066C802.93 59.2611 802.618 59.1927 802.279 59.1016C801.947 59.0104 801.579 58.89 801.176 58.7402L801.381 57.002C801.745 57.1582 802.074 57.2949 802.367 57.4121C802.667 57.5293 802.956 57.6237 803.236 57.6953C803.516 57.7734 803.799 57.8288 804.086 57.8613C804.379 57.9004 804.701 57.9199 805.053 57.9199C806.055 57.9199 806.833 57.6042 807.387 56.9727C807.94 56.3542 808.217 55.5046 808.217 54.4238V53.418H808.178C807.787 53.9453 807.279 54.3424 806.654 54.6094C806.049 54.8698 805.417 55 804.76 55C804.024 55 803.383 54.8633 802.836 54.5898C802.289 54.3164 801.833 53.9486 801.469 53.4863C801.111 53.0241 800.84 52.4902 800.658 51.8848C800.482 51.2793 800.395 50.6445 800.395 49.9805C800.395 49.5443 800.437 49.1081 800.521 48.6719C800.606 48.2357 800.73 47.8158 800.893 47.4121C801.062 47.0085 801.27 46.6341 801.518 46.2891C801.771 45.944 802.068 45.6445 802.406 45.3906C802.745 45.1302 803.126 44.9284 803.549 44.7852C803.972 44.6354 804.441 44.5605 804.955 44.5605C805.404 44.5605 805.805 44.5996 806.156 44.6777C806.514 44.7559 806.83 44.8698 807.104 45.0195C807.377 45.1693 807.611 45.3548 807.807 45.5762C808.008 45.791 808.178 46.0384 808.314 46.3184H808.354V44.8047H810.092V54.5605ZM824.447 42.9199L821.674 49.8438H827.23L824.447 42.9199ZM823.471 41.0352H825.57L831.469 55H829.291L827.865 51.4844H821.029L819.613 55H817.514L823.471 41.0352ZM841.02 49.8633C841.033 49.4076 840.987 48.9551 840.883 48.5059C840.785 48.0501 840.622 47.6432 840.395 47.2852C840.173 46.9271 839.883 46.6374 839.525 46.416C839.167 46.1947 838.734 46.084 838.227 46.084C837.712 46.084 837.266 46.1947 836.889 46.416C836.511 46.6309 836.195 46.9206 835.941 47.2852C835.694 47.6432 835.508 48.0534 835.385 48.5156C835.261 48.9714 835.199 49.4401 835.199 49.9219C835.199 50.3451 835.255 50.7812 835.365 51.2305C835.482 51.6797 835.661 52.0898 835.902 52.4609C836.143 52.8255 836.452 53.1283 836.83 53.3691C837.214 53.6035 837.673 53.7207 838.207 53.7207C838.539 53.7207 838.839 53.6621 839.105 53.5449C839.379 53.4277 839.62 53.2715 839.828 53.0762C840.043 52.8809 840.225 52.653 840.375 52.3926C840.531 52.1322 840.658 51.8587 840.756 51.5723C840.854 51.2858 840.922 50.9961 840.961 50.7031C841.007 50.4102 841.026 50.1302 841.02 49.8633ZM833.324 44.8047H835.121V46.2402H835.16C835.284 46.0514 835.447 45.8594 835.648 45.6641C835.857 45.4622 836.104 45.2799 836.391 45.1172C836.684 44.9544 837.016 44.821 837.387 44.7168C837.764 44.6126 838.178 44.5605 838.627 44.5605C839.363 44.5605 840.004 44.7005 840.551 44.9805C841.104 45.2604 841.563 45.638 841.928 46.1133C842.292 46.5885 842.566 47.1387 842.748 47.7637C842.93 48.3822 843.021 49.0332 843.021 49.7168C843.021 50.4264 842.937 51.1133 842.768 51.7773C842.605 52.4349 842.344 53.0208 841.986 53.5352C841.635 54.0495 841.182 54.4629 840.629 54.7754C840.076 55.0814 839.415 55.2376 838.646 55.2441C837.735 55.2441 837.012 55.0879 836.479 54.7754C835.958 54.4564 835.544 54.0658 835.238 53.6035H835.199V59.1992H833.324V44.8047ZM853.246 49.8633C853.259 49.4076 853.214 48.9551 853.109 48.5059C853.012 48.0501 852.849 47.6432 852.621 47.2852C852.4 46.9271 852.11 46.6374 851.752 46.416C851.394 46.1947 850.961 46.084 850.453 46.084C849.939 46.084 849.493 46.1947 849.115 46.416C848.738 46.6309 848.422 46.9206 848.168 47.2852C847.921 47.6432 847.735 48.0534 847.611 48.5156C847.488 48.9714 847.426 49.4401 847.426 49.9219C847.426 50.3451 847.481 50.7812 847.592 51.2305C847.709 51.6797 847.888 52.0898 848.129 52.4609C848.37 52.8255 848.679 53.1283 849.057 53.3691C849.441 53.6035 849.9 53.7207 850.434 53.7207C850.766 53.7207 851.065 53.6621 851.332 53.5449C851.605 53.4277 851.846 53.2715 852.055 53.0762C852.27 52.8809 852.452 52.653 852.602 52.3926C852.758 52.1322 852.885 51.8587 852.982 51.5723C853.08 51.2858 853.148 50.9961 853.188 50.7031C853.233 50.4102 853.253 50.1302 853.246 49.8633ZM845.551 44.8047H847.348V46.2402H847.387C847.51 46.0514 847.673 45.8594 847.875 45.6641C848.083 45.4622 848.331 45.2799 848.617 45.1172C848.91 44.9544 849.242 44.821 849.613 44.7168C849.991 44.6126 850.404 44.5605 850.854 44.5605C851.589 44.5605 852.23 44.7005 852.777 44.9805C853.331 45.2604 853.79 45.638 854.154 46.1133C854.519 46.5885 854.792 47.1387 854.975 47.7637C855.157 48.3822 855.248 49.0332 855.248 49.7168C855.248 50.4264 855.163 51.1133 854.994 51.7773C854.831 52.4349 854.571 53.0208 854.213 53.5352C853.861 54.0495 853.409 54.4629 852.855 54.7754C852.302 55.0814 851.641 55.2376 850.873 55.2441C849.962 55.2441 849.239 55.0879 848.705 54.7754C848.184 54.4564 847.771 54.0658 847.465 53.6035H847.426V59.1992H845.551V44.8047ZM857.777 44.8047H859.535V46.377H859.574C859.822 45.8496 860.193 45.4134 860.688 45.0684C861.169 44.7298 861.687 44.5605 862.24 44.5605C862.52 44.5605 862.745 44.5736 862.914 44.5996C863.09 44.6257 863.279 44.6582 863.48 44.6973V46.377C863.305 46.3118 863.126 46.2663 862.943 46.2402C862.768 46.2142 862.598 46.2012 862.436 46.2012C861.596 46.2012 860.922 46.5755 860.414 47.3242C859.906 48.0664 859.652 49.0788 859.652 50.3613V55H857.777V44.8047ZM866.889 49.9023C866.889 50.3516 866.951 50.804 867.074 51.2598C867.204 51.7155 867.4 52.1257 867.66 52.4902C867.921 52.8548 868.253 53.151 868.656 53.3789C869.06 53.6068 869.538 53.7207 870.092 53.7207C870.639 53.7207 871.111 53.6068 871.508 53.3789C871.911 53.151 872.24 52.8548 872.494 52.4902C872.755 52.1257 872.947 51.7155 873.07 51.2598C873.201 50.804 873.266 50.3516 873.266 49.9023C873.266 49.4141 873.194 48.9421 873.051 48.4863C872.908 48.0306 872.699 47.6237 872.426 47.2656C872.152 46.9076 871.817 46.6211 871.42 46.4062C871.029 46.1914 870.587 46.084 870.092 46.084C869.59 46.084 869.141 46.1914 868.744 46.4062C868.347 46.6211 868.012 46.9076 867.738 47.2656C867.465 47.6237 867.253 48.0306 867.104 48.4863C866.96 48.9421 866.889 49.4141 866.889 49.9023ZM864.887 49.9023C864.887 49.1276 865.01 48.4147 865.258 47.7637C865.512 47.1061 865.863 46.543 866.312 46.0742C866.768 45.599 867.315 45.2279 867.953 44.9609C868.598 44.694 869.311 44.5605 870.092 44.5605C870.867 44.5605 871.573 44.694 872.211 44.9609C872.849 45.2279 873.393 45.599 873.842 46.0742C874.298 46.543 874.649 47.1061 874.896 47.7637C875.144 48.4147 875.268 49.1276 875.268 49.9023C875.268 50.6315 875.141 51.3216 874.887 51.9727C874.633 52.6172 874.278 53.1836 873.822 53.6719C873.367 54.1536 872.82 54.5378 872.182 54.8242C871.55 55.1042 870.854 55.2441 870.092 55.2441C869.324 55.2441 868.62 55.1042 867.982 54.8242C867.344 54.5378 866.794 54.1536 866.332 53.6719C865.876 53.1836 865.521 52.6172 865.268 51.9727C865.014 51.3216 864.887 50.6315 864.887 49.9023ZM882.318 55H880.072L876.42 44.8047H878.471L881.234 53.1152H881.273L884.096 44.8047H885.971L882.318 55ZM894.398 48.916C894.398 48.5254 894.34 48.1608 894.223 47.8223C894.112 47.4772 893.949 47.1777 893.734 46.9238C893.52 46.6634 893.253 46.4583 892.934 46.3086C892.621 46.1589 892.263 46.084 891.859 46.084C891.391 46.084 890.99 46.1719 890.658 46.3477C890.333 46.5169 890.062 46.7383 889.848 47.0117C889.633 47.2852 889.467 47.5911 889.35 47.9297C889.232 48.2617 889.154 48.5905 889.115 48.916H894.398ZM895.619 54.5801C895.43 54.6452 895.235 54.7168 895.033 54.7949C894.838 54.8665 894.613 54.9349 894.359 55C894.105 55.0716 893.819 55.1302 893.5 55.1758C893.181 55.2214 892.813 55.2441 892.396 55.2441C891.498 55.2441 890.717 55.1107 890.053 54.8438C889.389 54.5768 888.839 54.2025 888.402 53.7207C887.966 53.2389 887.641 52.6595 887.426 51.9824C887.217 51.2988 887.113 50.5436 887.113 49.7168C887.113 48.9681 887.227 48.278 887.455 47.6465C887.683 47.015 888.005 46.4714 888.422 46.0156C888.845 45.5534 889.35 45.1953 889.936 44.9414C890.521 44.6875 891.176 44.5605 891.898 44.5605C892.745 44.5605 893.454 44.707 894.027 45C894.607 45.293 895.069 45.6999 895.414 46.2207C895.766 46.735 896.016 47.3438 896.166 48.0469C896.316 48.7435 896.391 49.502 896.391 50.3223H889.115C889.115 50.8236 889.206 51.2826 889.389 51.6992C889.571 52.1159 889.815 52.474 890.121 52.7734C890.434 53.0729 890.792 53.3073 891.195 53.4766C891.605 53.6393 892.032 53.7207 892.475 53.7207C892.794 53.7207 893.113 53.6849 893.432 53.6133C893.757 53.5417 894.06 53.4538 894.34 53.3496C894.626 53.2454 894.88 53.1348 895.102 53.0176C895.329 52.9004 895.502 52.793 895.619 52.6953V54.5801ZM898.93 44.8047H900.688V46.377H900.727C900.974 45.8496 901.345 45.4134 901.84 45.0684C902.322 44.7298 902.839 44.5605 903.393 44.5605C903.673 44.5605 903.897 44.5736 904.066 44.5996C904.242 44.6257 904.431 44.6582 904.633 44.6973V46.377C904.457 46.3118 904.278 46.2663 904.096 46.2402C903.92 46.2142 903.751 46.2012 903.588 46.2012C902.748 46.2012 902.074 46.5755 901.566 47.3242C901.059 48.0664 900.805 49.0788 900.805 50.3613V55H898.93V44.8047Z" fill="#333333"/>
<path d="M946.203 191.219C946.203 192.208 946.083 193.077 945.842 193.826C945.607 194.575 945.259 195.203 944.797 195.711C944.335 196.219 943.765 196.603 943.088 196.863C942.417 197.117 941.649 197.244 940.783 197.244C939.051 197.244 937.714 196.733 936.77 195.711C935.832 194.689 935.363 193.191 935.363 191.219V183.035H937.365V190.965C937.365 191.629 937.421 192.238 937.531 192.791C937.648 193.344 937.84 193.82 938.107 194.217C938.374 194.614 938.726 194.923 939.162 195.145C939.598 195.366 940.139 195.477 940.783 195.477C941.428 195.477 941.968 195.366 942.404 195.145C942.847 194.923 943.202 194.614 943.469 194.217C943.736 193.82 943.924 193.344 944.035 192.791C944.152 192.238 944.211 191.629 944.211 190.965V183.035H946.203V191.219ZM949.621 186.805H951.438V188.416H951.477C951.763 187.824 952.209 187.368 952.814 187.049C953.433 186.723 954.1 186.561 954.816 186.561C956.132 186.561 957.098 186.948 957.717 187.723C958.329 188.491 958.635 189.562 958.635 190.936V197H956.76V191.717C956.76 190.525 956.607 189.633 956.301 189.041C955.995 188.449 955.428 188.13 954.602 188.084C954.061 188.084 953.596 188.188 953.205 188.396C952.814 188.598 952.492 188.885 952.238 189.256C951.984 189.627 951.796 190.07 951.672 190.584C951.555 191.098 951.496 191.665 951.496 192.283V197H949.621V186.805ZM963.166 191.863C963.16 192.13 963.176 192.41 963.215 192.703C963.26 192.996 963.332 193.286 963.43 193.572C963.527 193.859 963.651 194.132 963.801 194.393C963.957 194.653 964.139 194.881 964.348 195.076C964.562 195.271 964.803 195.428 965.07 195.545C965.344 195.662 965.65 195.721 965.988 195.721C966.522 195.721 966.978 195.604 967.355 195.369C967.733 195.128 968.042 194.826 968.283 194.461C968.524 194.09 968.7 193.68 968.811 193.23C968.928 192.781 968.986 192.345 968.986 191.922C968.986 191.44 968.924 190.971 968.801 190.516C968.677 190.053 968.488 189.643 968.234 189.285C967.987 188.921 967.674 188.631 967.297 188.416C966.919 188.195 966.477 188.084 965.969 188.084C965.461 188.084 965.025 188.195 964.66 188.416C964.302 188.631 964.009 188.917 963.781 189.275C963.56 189.627 963.397 190.031 963.293 190.486C963.195 190.936 963.153 191.395 963.166 191.863ZM969.064 195.564H969.025C968.908 195.753 968.742 195.945 968.527 196.141C968.319 196.336 968.068 196.518 967.775 196.688C967.482 196.85 967.15 196.984 966.779 197.088C966.408 197.192 965.998 197.244 965.549 197.244C964.774 197.244 964.11 197.088 963.557 196.775C963.003 196.456 962.548 196.04 962.189 195.525C961.838 195.005 961.577 194.415 961.408 193.758C961.245 193.094 961.164 192.413 961.164 191.717C961.164 191.033 961.252 190.382 961.428 189.764C961.61 189.139 961.883 188.589 962.248 188.113C962.619 187.638 963.078 187.26 963.625 186.98C964.178 186.701 964.826 186.561 965.568 186.561C966.454 186.561 967.167 186.717 967.707 187.029C968.241 187.342 968.654 187.732 968.947 188.201H968.986V182H970.861V197H969.064V195.564ZM980.676 190.916C980.676 190.525 980.617 190.161 980.5 189.822C980.389 189.477 980.227 189.178 980.012 188.924C979.797 188.663 979.53 188.458 979.211 188.309C978.898 188.159 978.54 188.084 978.137 188.084C977.668 188.084 977.268 188.172 976.936 188.348C976.61 188.517 976.34 188.738 976.125 189.012C975.91 189.285 975.744 189.591 975.627 189.93C975.51 190.262 975.432 190.59 975.393 190.916H980.676ZM981.896 196.58C981.708 196.645 981.512 196.717 981.311 196.795C981.115 196.867 980.891 196.935 980.637 197C980.383 197.072 980.096 197.13 979.777 197.176C979.458 197.221 979.09 197.244 978.674 197.244C977.775 197.244 976.994 197.111 976.33 196.844C975.666 196.577 975.116 196.202 974.68 195.721C974.243 195.239 973.918 194.66 973.703 193.982C973.495 193.299 973.391 192.544 973.391 191.717C973.391 190.968 973.505 190.278 973.732 189.646C973.96 189.015 974.283 188.471 974.699 188.016C975.122 187.553 975.627 187.195 976.213 186.941C976.799 186.688 977.453 186.561 978.176 186.561C979.022 186.561 979.732 186.707 980.305 187C980.884 187.293 981.346 187.7 981.691 188.221C982.043 188.735 982.294 189.344 982.443 190.047C982.593 190.743 982.668 191.502 982.668 192.322H975.393C975.393 192.824 975.484 193.283 975.666 193.699C975.848 194.116 976.092 194.474 976.398 194.773C976.711 195.073 977.069 195.307 977.473 195.477C977.883 195.639 978.309 195.721 978.752 195.721C979.071 195.721 979.39 195.685 979.709 195.613C980.035 195.542 980.337 195.454 980.617 195.35C980.904 195.245 981.158 195.135 981.379 195.018C981.607 194.9 981.779 194.793 981.896 194.695V196.58ZM985.207 186.805H986.965V188.377H987.004C987.251 187.85 987.622 187.413 988.117 187.068C988.599 186.73 989.117 186.561 989.67 186.561C989.95 186.561 990.174 186.574 990.344 186.6C990.52 186.626 990.708 186.658 990.91 186.697V188.377C990.734 188.312 990.555 188.266 990.373 188.24C990.197 188.214 990.028 188.201 989.865 188.201C989.025 188.201 988.352 188.576 987.844 189.324C987.336 190.066 987.082 191.079 987.082 192.361V197H985.207V186.805ZM1005.08 185.145C1004.83 185.047 1004.6 184.962 1004.4 184.891C1004.19 184.819 1003.98 184.76 1003.78 184.715C1003.59 184.663 1003.38 184.624 1003.17 184.598C1002.96 184.572 1002.72 184.559 1002.46 184.559C1002.18 184.559 1001.9 184.588 1001.6 184.646C1001.32 184.705 1001.06 184.806 1000.82 184.949C1000.59 185.092 1000.4 185.285 1000.25 185.525C1000.1 185.766 1000.02 186.066 1000.02 186.424C1000.02 186.88 1000.17 187.247 1000.46 187.527C1000.75 187.82 1001.12 188.087 1001.57 188.328C1002.02 188.562 1002.51 188.797 1003.02 189.031C1003.4 189.214 1003.76 189.422 1004.12 189.656C1004.49 189.884 1004.81 190.158 1005.09 190.477C1005.38 190.796 1005.6 191.167 1005.77 191.59C1005.94 192.013 1006.03 192.511 1006.03 193.084C1006.03 193.826 1005.89 194.461 1005.62 194.988C1005.35 195.516 1004.98 195.945 1004.51 196.277C1004.05 196.609 1003.51 196.854 1002.89 197.01C1002.27 197.166 1001.62 197.244 1000.93 197.244C1000.43 197.244 999.95 197.182 999.475 197.059C999.006 196.941 998.537 196.808 998.068 196.658L998.264 194.803C998.439 194.868 998.638 194.939 998.859 195.018C999.087 195.096 999.328 195.171 999.582 195.242C999.836 195.307 1000.1 195.363 1000.36 195.408C1000.64 195.454 1000.9 195.477 1001.16 195.477C1001.44 195.477 1001.74 195.434 1002.06 195.35C1002.39 195.265 1002.69 195.132 1002.96 194.949C1003.23 194.767 1003.46 194.533 1003.63 194.246C1003.82 193.96 1003.91 193.611 1003.91 193.201C1003.91 192.811 1003.82 192.479 1003.65 192.205C1003.49 191.925 1003.26 191.681 1002.97 191.473C1002.69 191.258 1002.37 191.066 1002 190.896C1001.65 190.721 1001.28 190.545 1000.9 190.369C1000.53 190.187 1000.16 189.992 999.797 189.783C999.439 189.568 999.117 189.318 998.83 189.031C998.55 188.738 998.326 188.396 998.156 188.006C997.987 187.609 997.902 187.14 997.902 186.6C997.902 185.988 998.016 185.444 998.244 184.969C998.479 184.493 998.798 184.096 999.201 183.777C999.611 183.458 1000.09 183.217 1000.63 183.055C1001.17 182.885 1001.76 182.801 1002.38 182.801C1002.85 182.801 1003.35 182.84 1003.86 182.918C1004.37 182.996 1004.88 183.123 1005.36 183.299L1005.08 185.145ZM1008.76 183.035H1012.06L1016.45 194.637L1020.74 183.035H1024.04V197H1022.04V184.92H1022L1017.38 197H1015.42L1010.8 184.92H1010.76V197H1008.76V183.035ZM1027.74 183.035H1035.55V184.803H1029.73V188.885H1035.03V190.643H1029.73V195.242H1035.55V197H1027.74V183.035ZM1046.21 189.041H1047.91C1048.88 189.041 1049.62 188.849 1050.14 188.465C1050.67 188.081 1050.93 187.547 1050.93 186.863C1050.93 186.212 1050.7 185.708 1050.23 185.35C1049.76 184.985 1049.06 184.803 1048.13 184.803H1046.21V189.041ZM1044.21 183.035H1047.63C1047.98 183.035 1048.32 183.045 1048.65 183.064C1048.99 183.077 1049.32 183.11 1049.64 183.162C1049.96 183.208 1050.26 183.273 1050.55 183.357C1050.84 183.436 1051.12 183.543 1051.37 183.68C1051.62 183.816 1051.85 183.979 1052.05 184.168C1052.26 184.35 1052.44 184.568 1052.58 184.822C1052.73 185.076 1052.84 185.369 1052.92 185.701C1053.01 186.033 1053.05 186.408 1053.05 186.824C1053.05 187.247 1052.97 187.641 1052.82 188.006C1052.67 188.364 1052.47 188.68 1052.21 188.953C1051.96 189.227 1051.65 189.454 1051.3 189.637C1050.95 189.812 1050.57 189.933 1050.17 189.998V190.037C1050.32 190.102 1050.45 190.174 1050.58 190.252C1050.71 190.33 1050.82 190.418 1050.91 190.516C1051.11 190.711 1051.31 191.02 1051.54 191.443L1054.17 197H1051.89L1049.75 192.156C1049.59 191.824 1049.43 191.567 1049.27 191.385C1049.11 191.196 1048.93 191.059 1048.74 190.975C1048.56 190.89 1048.36 190.841 1048.15 190.828C1047.93 190.809 1047.69 190.799 1047.41 190.799H1046.21V197H1044.21V183.035ZM1062.98 190.916C1062.98 190.525 1062.92 190.161 1062.8 189.822C1062.69 189.477 1062.53 189.178 1062.32 188.924C1062.1 188.663 1061.83 188.458 1061.52 188.309C1061.2 188.159 1060.85 188.084 1060.44 188.084C1059.97 188.084 1059.57 188.172 1059.24 188.348C1058.91 188.517 1058.64 188.738 1058.43 189.012C1058.21 189.285 1058.05 189.591 1057.93 189.93C1057.81 190.262 1057.74 190.59 1057.7 190.916H1062.98ZM1064.2 196.58C1064.01 196.645 1063.82 196.717 1063.62 196.795C1063.42 196.867 1063.2 196.935 1062.94 197C1062.69 197.072 1062.4 197.13 1062.08 197.176C1061.76 197.221 1061.4 197.244 1060.98 197.244C1060.08 197.244 1059.3 197.111 1058.63 196.844C1057.97 196.577 1057.42 196.202 1056.98 195.721C1056.55 195.239 1056.22 194.66 1056.01 193.982C1055.8 193.299 1055.7 192.544 1055.7 191.717C1055.7 190.968 1055.81 190.278 1056.04 189.646C1056.26 189.015 1056.59 188.471 1057 188.016C1057.43 187.553 1057.93 187.195 1058.52 186.941C1059.1 186.688 1059.76 186.561 1060.48 186.561C1061.33 186.561 1062.04 186.707 1062.61 187C1063.19 187.293 1063.65 187.7 1064 188.221C1064.35 188.735 1064.6 189.344 1064.75 190.047C1064.9 190.743 1064.97 191.502 1064.97 192.322H1057.7C1057.7 192.824 1057.79 193.283 1057.97 193.699C1058.15 194.116 1058.4 194.474 1058.7 194.773C1059.02 195.073 1059.37 195.307 1059.78 195.477C1060.19 195.639 1060.61 195.721 1061.06 195.721C1061.38 195.721 1061.69 195.685 1062.01 195.613C1062.34 195.542 1062.64 195.454 1062.92 195.35C1063.21 195.245 1063.46 195.135 1063.68 195.018C1063.91 194.9 1064.08 194.793 1064.2 194.695V196.58ZM1072.03 197H1069.79L1066.13 186.805H1068.19L1070.95 195.115H1070.99L1073.81 186.805H1075.69L1072.03 197ZM1079.75 184.52H1077.63V182.4H1079.75V184.52ZM1077.75 186.805H1079.63V197H1077.75V186.805ZM1089.68 190.916C1089.68 190.525 1089.62 190.161 1089.5 189.822C1089.39 189.477 1089.23 189.178 1089.02 188.924C1088.8 188.663 1088.53 188.458 1088.21 188.309C1087.9 188.159 1087.54 188.084 1087.14 188.084C1086.67 188.084 1086.27 188.172 1085.94 188.348C1085.61 188.517 1085.34 188.738 1085.13 189.012C1084.91 189.285 1084.75 189.591 1084.63 189.93C1084.51 190.262 1084.44 190.59 1084.4 190.916H1089.68ZM1090.9 196.58C1090.71 196.645 1090.52 196.717 1090.31 196.795C1090.12 196.867 1089.89 196.935 1089.64 197C1089.39 197.072 1089.1 197.13 1088.78 197.176C1088.46 197.221 1088.09 197.244 1087.68 197.244C1086.78 197.244 1086 197.111 1085.33 196.844C1084.67 196.577 1084.12 196.202 1083.68 195.721C1083.25 195.239 1082.92 194.66 1082.71 193.982C1082.5 193.299 1082.39 192.544 1082.39 191.717C1082.39 190.968 1082.51 190.278 1082.74 189.646C1082.96 189.015 1083.29 188.471 1083.7 188.016C1084.13 187.553 1084.63 187.195 1085.22 186.941C1085.8 186.688 1086.46 186.561 1087.18 186.561C1088.03 186.561 1088.74 186.707 1089.31 187C1089.89 187.293 1090.35 187.7 1090.7 188.221C1091.05 188.735 1091.3 189.344 1091.45 190.047C1091.6 190.743 1091.67 191.502 1091.67 192.322H1084.4C1084.4 192.824 1084.49 193.283 1084.67 193.699C1084.85 194.116 1085.1 194.474 1085.4 194.773C1085.71 195.073 1086.07 195.307 1086.48 195.477C1086.89 195.639 1087.31 195.721 1087.76 195.721C1088.07 195.721 1088.39 195.685 1088.71 195.613C1089.04 195.542 1089.34 195.454 1089.62 195.35C1089.91 195.245 1090.16 195.135 1090.38 195.018C1090.61 194.9 1090.78 194.793 1090.9 194.695V196.58ZM1105.75 197H1103.57L1100.93 188.436H1100.89L1098.31 197H1096.12L1092.85 186.805H1094.91L1097.25 195.242H1097.29L1099.88 186.805H1102.11L1104.67 195.242H1104.71L1107.19 186.805H1109.03L1105.75 197ZM1117.66 188.318H1115.26V186.805H1117.66V185.857C1117.66 185.239 1117.7 184.679 1117.79 184.178C1117.89 183.67 1118.07 183.237 1118.31 182.879C1118.57 182.521 1118.91 182.244 1119.36 182.049C1119.8 181.854 1120.37 181.756 1121.08 181.756C1121.32 181.756 1121.54 181.772 1121.74 181.805C1121.95 181.831 1122.15 181.857 1122.34 181.883L1122.26 183.396C1122.15 183.357 1122.01 183.328 1121.84 183.309C1121.68 183.289 1121.52 183.279 1121.36 183.279C1120.96 183.279 1120.63 183.341 1120.39 183.465C1120.15 183.589 1119.97 183.758 1119.84 183.973C1119.71 184.188 1119.63 184.445 1119.59 184.744C1119.55 185.037 1119.53 185.356 1119.53 185.701V186.805H1122.24V188.318H1119.53V197H1117.66V188.318ZM1125.55 191.902C1125.55 192.352 1125.61 192.804 1125.73 193.26C1125.86 193.715 1126.06 194.126 1126.32 194.49C1126.58 194.855 1126.91 195.151 1127.32 195.379C1127.72 195.607 1128.2 195.721 1128.75 195.721C1129.3 195.721 1129.77 195.607 1130.17 195.379C1130.57 195.151 1130.9 194.855 1131.15 194.49C1131.41 194.126 1131.61 193.715 1131.73 193.26C1131.86 192.804 1131.93 192.352 1131.93 191.902C1131.93 191.414 1131.85 190.942 1131.71 190.486C1131.57 190.031 1131.36 189.624 1131.09 189.266C1130.81 188.908 1130.48 188.621 1130.08 188.406C1129.69 188.191 1129.25 188.084 1128.75 188.084C1128.25 188.084 1127.8 188.191 1127.4 188.406C1127.01 188.621 1126.67 188.908 1126.4 189.266C1126.12 189.624 1125.91 190.031 1125.76 190.486C1125.62 190.942 1125.55 191.414 1125.55 191.902ZM1123.55 191.902C1123.55 191.128 1123.67 190.415 1123.92 189.764C1124.17 189.106 1124.52 188.543 1124.97 188.074C1125.43 187.599 1125.98 187.228 1126.61 186.961C1127.26 186.694 1127.97 186.561 1128.75 186.561C1129.53 186.561 1130.23 186.694 1130.87 186.961C1131.51 187.228 1132.05 187.599 1132.5 188.074C1132.96 188.543 1133.31 189.106 1133.56 189.764C1133.8 190.415 1133.93 191.128 1133.93 191.902C1133.93 192.632 1133.8 193.322 1133.55 193.973C1133.29 194.617 1132.94 195.184 1132.48 195.672C1132.03 196.154 1131.48 196.538 1130.84 196.824C1130.21 197.104 1129.51 197.244 1128.75 197.244C1127.98 197.244 1127.28 197.104 1126.64 196.824C1126 196.538 1125.45 196.154 1124.99 195.672C1124.54 195.184 1124.18 194.617 1123.93 193.973C1123.67 193.322 1123.55 192.632 1123.55 191.902ZM1136.46 186.805H1138.21V188.377H1138.25C1138.5 187.85 1138.87 187.413 1139.37 187.068C1139.85 186.73 1140.37 186.561 1140.92 186.561C1141.2 186.561 1141.42 186.574 1141.59 186.6C1141.77 186.626 1141.96 186.658 1142.16 186.697V188.377C1141.98 188.312 1141.81 188.266 1141.62 188.24C1141.45 188.214 1141.28 188.201 1141.12 188.201C1140.28 188.201 1139.6 188.576 1139.09 189.324C1138.59 190.066 1138.33 191.079 1138.33 192.361V197H1136.46V186.805ZM1151.88 189.002H1152.97C1153.45 189.002 1153.91 188.982 1154.34 188.943C1154.77 188.898 1155.15 188.8 1155.48 188.65C1155.81 188.501 1156.07 188.276 1156.26 187.977C1156.46 187.677 1156.55 187.27 1156.55 186.756C1156.55 186.346 1156.47 186.007 1156.31 185.74C1156.15 185.473 1155.95 185.262 1155.7 185.105C1155.45 184.943 1155.17 184.832 1154.87 184.773C1154.56 184.708 1154.26 184.676 1153.98 184.676H1151.88V189.002ZM1151.88 195.359H1153.37C1153.83 195.359 1154.26 195.33 1154.67 195.271C1155.09 195.206 1155.45 195.092 1155.76 194.93C1156.08 194.76 1156.33 194.529 1156.52 194.236C1156.7 193.943 1156.8 193.566 1156.8 193.104C1156.8 192.563 1156.69 192.13 1156.48 191.805C1156.26 191.479 1155.98 191.232 1155.63 191.062C1155.28 190.887 1154.89 190.773 1154.46 190.721C1154.04 190.669 1153.61 190.643 1153.18 190.643H1151.88V195.359ZM1149.88 183.035H1153.65C1154.38 183.035 1155.04 183.1 1155.64 183.23C1156.24 183.354 1156.76 183.556 1157.19 183.836C1157.63 184.116 1157.96 184.48 1158.2 184.93C1158.44 185.379 1158.56 185.923 1158.56 186.561C1158.56 187.511 1158.3 188.247 1157.78 188.768C1157.26 189.282 1156.56 189.653 1155.68 189.881V189.92C1156.15 189.959 1156.59 190.063 1156.98 190.232C1157.38 190.402 1157.72 190.633 1158.01 190.926C1158.3 191.212 1158.52 191.554 1158.67 191.951C1158.84 192.348 1158.92 192.791 1158.92 193.279C1158.92 194.028 1158.77 194.643 1158.49 195.125C1158.2 195.607 1157.81 195.988 1157.33 196.268C1156.84 196.541 1156.27 196.733 1155.63 196.844C1154.98 196.948 1154.31 197 1153.6 197H1149.88V183.035ZM1168.64 190.916C1168.64 190.525 1168.59 190.161 1168.47 189.822C1168.36 189.477 1168.2 189.178 1167.98 188.924C1167.77 188.663 1167.5 188.458 1167.18 188.309C1166.87 188.159 1166.51 188.084 1166.11 188.084C1165.64 188.084 1165.24 188.172 1164.9 188.348C1164.58 188.517 1164.31 188.738 1164.09 189.012C1163.88 189.285 1163.71 189.591 1163.6 189.93C1163.48 190.262 1163.4 190.59 1163.36 190.916H1168.64ZM1169.87 196.58C1169.68 196.645 1169.48 196.717 1169.28 196.795C1169.08 196.867 1168.86 196.935 1168.61 197C1168.35 197.072 1168.07 197.13 1167.75 197.176C1167.43 197.221 1167.06 197.244 1166.64 197.244C1165.74 197.244 1164.96 197.111 1164.3 196.844C1163.63 196.577 1163.08 196.202 1162.65 195.721C1162.21 195.239 1161.89 194.66 1161.67 193.982C1161.46 193.299 1161.36 192.544 1161.36 191.717C1161.36 190.968 1161.47 190.278 1161.7 189.646C1161.93 189.015 1162.25 188.471 1162.67 188.016C1163.09 187.553 1163.6 187.195 1164.18 186.941C1164.77 186.688 1165.42 186.561 1166.14 186.561C1166.99 186.561 1167.7 186.707 1168.27 187C1168.85 187.293 1169.32 187.7 1169.66 188.221C1170.01 188.735 1170.26 189.344 1170.41 190.047C1170.56 190.743 1170.64 191.502 1170.64 192.322H1163.36C1163.36 192.824 1163.45 193.283 1163.63 193.699C1163.82 194.116 1164.06 194.474 1164.37 194.773C1164.68 195.073 1165.04 195.307 1165.44 195.477C1165.85 195.639 1166.28 195.721 1166.72 195.721C1167.04 195.721 1167.36 195.685 1167.68 195.613C1168 195.542 1168.31 195.454 1168.59 195.35C1168.87 195.245 1169.13 195.135 1169.35 195.018C1169.58 194.9 1169.75 194.793 1169.87 194.695V196.58ZM1172.41 194.998C1172.6 195.122 1172.8 195.229 1173.02 195.32C1173.23 195.411 1173.45 195.486 1173.65 195.545C1173.87 195.604 1174.07 195.649 1174.26 195.682C1174.46 195.708 1174.62 195.721 1174.76 195.721C1174.97 195.721 1175.18 195.698 1175.41 195.652C1175.64 195.607 1175.85 195.529 1176.03 195.418C1176.22 195.301 1176.37 195.151 1176.49 194.969C1176.61 194.78 1176.67 194.542 1176.67 194.256C1176.67 194.028 1176.61 193.826 1176.48 193.65C1176.35 193.475 1176.19 193.315 1175.98 193.172C1175.78 193.022 1175.54 192.885 1175.28 192.762C1175.01 192.632 1174.74 192.498 1174.46 192.361C1174.19 192.218 1173.92 192.068 1173.65 191.912C1173.39 191.749 1173.15 191.564 1172.94 191.355C1172.74 191.147 1172.57 190.91 1172.44 190.643C1172.32 190.369 1172.26 190.053 1172.26 189.695C1172.26 189.168 1172.35 188.709 1172.53 188.318C1172.71 187.921 1172.96 187.592 1173.28 187.332C1173.61 187.072 1173.99 186.88 1174.43 186.756C1174.87 186.626 1175.34 186.561 1175.85 186.561C1176.3 186.561 1176.71 186.603 1177.08 186.688C1177.45 186.766 1177.82 186.857 1178.2 186.961L1178.04 188.602C1177.93 188.536 1177.78 188.475 1177.6 188.416C1177.42 188.351 1177.24 188.296 1177.04 188.25C1176.85 188.198 1176.66 188.159 1176.48 188.133C1176.3 188.1 1176.16 188.084 1176.06 188.084C1175.57 188.084 1175.15 188.185 1174.79 188.387C1174.43 188.582 1174.25 188.895 1174.25 189.324C1174.25 189.585 1174.31 189.809 1174.44 189.998C1174.57 190.18 1174.74 190.343 1174.94 190.486C1175.15 190.623 1175.39 190.753 1175.65 190.877C1175.91 190.994 1176.18 191.121 1176.46 191.258C1176.73 191.388 1177 191.531 1177.27 191.688C1177.53 191.837 1177.77 192.02 1177.97 192.234C1178.18 192.449 1178.35 192.706 1178.48 193.006C1178.61 193.299 1178.67 193.65 1178.67 194.061C1178.67 194.607 1178.57 195.083 1178.37 195.486C1178.17 195.883 1177.9 196.212 1177.57 196.473C1177.24 196.733 1176.86 196.925 1176.43 197.049C1176 197.179 1175.57 197.244 1175.11 197.244C1174.63 197.244 1174.16 197.205 1173.67 197.127C1173.2 197.055 1172.75 196.906 1172.32 196.678L1172.41 194.998ZM1186.39 188.318H1183.68V193.904C1183.68 194.51 1183.84 194.962 1184.15 195.262C1184.48 195.568 1184.85 195.721 1185.27 195.721C1185.56 195.721 1185.81 195.685 1186.02 195.613C1186.23 195.535 1186.4 195.451 1186.54 195.359V196.961C1186.33 197.026 1186.09 197.088 1185.81 197.146C1185.55 197.212 1185.26 197.244 1184.94 197.244C1183.97 197.244 1183.2 197.007 1182.65 196.531C1182.09 196.049 1181.81 195.298 1181.81 194.275V188.318H1179.5V186.805H1181.81V184.441L1183.68 183.836V186.805H1186.39V188.318ZM1194.39 183.035H1198.05C1198.76 183.035 1199.44 183.107 1200.07 183.25C1200.71 183.387 1201.26 183.618 1201.74 183.943C1202.22 184.269 1202.59 184.699 1202.86 185.232C1203.14 185.766 1203.28 186.43 1203.28 187.225C1203.28 187.993 1203.14 188.644 1202.86 189.178C1202.58 189.712 1202.21 190.145 1201.75 190.477C1201.29 190.809 1200.77 191.049 1200.18 191.199C1199.59 191.349 1198.97 191.424 1198.34 191.424H1196.39V197H1194.39V183.035ZM1196.39 189.656H1198.37C1198.68 189.656 1199 189.617 1199.33 189.539C1199.66 189.454 1199.96 189.318 1200.23 189.129C1200.5 188.934 1200.72 188.68 1200.9 188.367C1201.08 188.048 1201.16 187.658 1201.16 187.195C1201.16 186.759 1201.06 186.388 1200.85 186.082C1200.65 185.776 1200.39 185.529 1200.08 185.34C1199.77 185.151 1199.44 185.014 1199.08 184.93C1198.73 184.845 1198.39 184.803 1198.09 184.803H1196.39V189.656ZM1205.46 186.805H1207.22V188.377H1207.26C1207.51 187.85 1207.88 187.413 1208.37 187.068C1208.85 186.73 1209.37 186.561 1209.92 186.561C1210.2 186.561 1210.43 186.574 1210.6 186.6C1210.77 186.626 1210.96 186.658 1211.16 186.697V188.377C1210.99 188.312 1210.81 188.266 1210.63 188.24C1210.45 188.214 1210.28 188.201 1210.12 188.201C1209.28 188.201 1208.61 188.576 1208.1 189.324C1207.59 190.066 1207.34 191.079 1207.34 192.361V197H1205.46V186.805ZM1219.31 192.137C1219.11 192.137 1218.91 192.13 1218.71 192.117C1218.51 192.104 1218.31 192.098 1218.12 192.098C1217.99 192.098 1217.84 192.104 1217.68 192.117C1217.51 192.124 1217.33 192.133 1217.13 192.146C1216.74 192.173 1216.35 192.257 1215.96 192.4C1215.58 192.524 1215.26 192.719 1214.98 192.986C1214.71 193.253 1214.57 193.611 1214.57 194.061C1214.57 194.327 1214.63 194.565 1214.75 194.773C1214.87 194.975 1215.01 195.148 1215.2 195.291C1215.39 195.428 1215.59 195.535 1215.81 195.613C1216.04 195.685 1216.26 195.721 1216.48 195.721C1217.41 195.721 1218.11 195.464 1218.59 194.949C1219.07 194.428 1219.31 193.79 1219.31 193.035V192.137ZM1213.73 187.518C1214.2 187.238 1214.72 187.01 1215.28 186.834C1215.84 186.652 1216.44 186.561 1217.09 186.561C1218.56 186.561 1219.6 186.915 1220.24 187.625C1220.87 188.335 1221.19 189.386 1221.19 190.779V194.998C1221.19 195.584 1221.2 196.027 1221.21 196.326C1221.23 196.626 1221.25 196.85 1221.27 197H1219.51V195.682H1219.47C1219.36 195.838 1219.22 196.007 1219.04 196.189C1218.85 196.372 1218.63 196.541 1218.36 196.697C1218.1 196.854 1217.8 196.984 1217.45 197.088C1217.11 197.192 1216.73 197.244 1216.31 197.244C1215.76 197.244 1215.26 197.182 1214.8 197.059C1214.34 196.941 1213.95 196.753 1213.62 196.492C1213.28 196.232 1213.03 195.903 1212.84 195.506C1212.66 195.102 1212.57 194.62 1212.57 194.061C1212.57 193.742 1212.61 193.449 1212.69 193.182C1212.77 192.915 1212.89 192.674 1213.03 192.459C1213.18 192.244 1213.35 192.052 1213.56 191.883C1213.76 191.714 1213.98 191.564 1214.21 191.434C1214.68 191.173 1215.19 190.988 1215.75 190.877C1216.31 190.76 1216.83 190.701 1217.32 190.701H1218.31C1218.46 190.701 1218.62 190.704 1218.78 190.711C1218.94 190.717 1219.12 190.727 1219.31 190.74C1219.31 189.861 1219.13 189.201 1218.76 188.758C1218.4 188.309 1217.74 188.084 1216.79 188.084C1216.26 188.084 1215.72 188.178 1215.2 188.367C1214.68 188.549 1214.22 188.8 1213.83 189.119L1213.73 187.518ZM1230.86 188.523C1230.5 188.374 1230.15 188.263 1229.81 188.191C1229.46 188.12 1229.13 188.084 1228.82 188.084C1228.3 188.084 1227.84 188.191 1227.43 188.406C1227.03 188.621 1226.69 188.908 1226.41 189.266C1226.13 189.624 1225.91 190.031 1225.76 190.486C1225.62 190.942 1225.55 191.414 1225.55 191.902C1225.55 192.352 1225.61 192.804 1225.73 193.26C1225.86 193.715 1226.07 194.126 1226.34 194.49C1226.61 194.855 1226.96 195.151 1227.39 195.379C1227.82 195.607 1228.34 195.721 1228.95 195.721C1229.27 195.721 1229.61 195.672 1229.97 195.574C1230.34 195.47 1230.68 195.327 1230.97 195.145L1231.11 196.824C1230.71 197.007 1230.31 197.12 1229.89 197.166C1229.48 197.218 1229.09 197.244 1228.74 197.244C1227.97 197.244 1227.27 197.104 1226.63 196.824C1226 196.538 1225.45 196.154 1224.99 195.672C1224.54 195.184 1224.18 194.617 1223.93 193.973C1223.67 193.322 1223.55 192.632 1223.55 191.902C1223.55 191.128 1223.67 190.415 1223.92 189.764C1224.17 189.106 1224.52 188.543 1224.97 188.074C1225.43 187.599 1225.98 187.228 1226.61 186.961C1227.25 186.694 1227.96 186.561 1228.74 186.561C1229.15 186.561 1229.56 186.603 1229.97 186.688C1230.43 186.766 1230.78 186.857 1231.03 186.961L1230.86 188.523ZM1238.69 188.318H1235.99V193.904C1235.99 194.51 1236.14 194.962 1236.46 195.262C1236.78 195.568 1237.15 195.721 1237.57 195.721C1237.86 195.721 1238.11 195.685 1238.32 195.613C1238.53 195.535 1238.71 195.451 1238.85 195.359V196.961C1238.63 197.026 1238.39 197.088 1238.12 197.146C1237.85 197.212 1237.56 197.244 1237.25 197.244C1236.27 197.244 1235.51 197.007 1234.95 196.531C1234.39 196.049 1234.11 195.298 1234.11 194.275V188.318H1231.81V186.805H1234.11V184.441L1235.99 183.836V186.805H1238.69V188.318ZM1243.3 184.52H1241.18V182.4H1243.3V184.52ZM1241.3 186.805H1243.19V197H1241.3V186.805ZM1253.11 188.523C1252.75 188.374 1252.4 188.263 1252.05 188.191C1251.71 188.12 1251.38 188.084 1251.07 188.084C1250.55 188.084 1250.08 188.191 1249.68 188.406C1249.28 188.621 1248.93 188.908 1248.65 189.266C1248.37 189.624 1248.16 190.031 1248.01 190.486C1247.87 190.942 1247.79 191.414 1247.79 191.902C1247.79 192.352 1247.86 192.804 1247.98 193.26C1248.11 193.715 1248.31 194.126 1248.59 194.49C1248.86 194.855 1249.21 195.151 1249.64 195.379C1250.07 195.607 1250.59 195.721 1251.19 195.721C1251.51 195.721 1251.85 195.672 1252.22 195.574C1252.59 195.47 1252.92 195.327 1253.21 195.145L1253.35 196.824C1252.96 197.007 1252.56 197.12 1252.14 197.166C1251.72 197.218 1251.34 197.244 1250.99 197.244C1250.22 197.244 1249.52 197.104 1248.88 196.824C1248.25 196.538 1247.7 196.154 1247.24 195.672C1246.78 195.184 1246.43 194.617 1246.17 193.973C1245.92 193.322 1245.79 192.632 1245.79 191.902C1245.79 191.128 1245.92 190.415 1246.16 189.764C1246.42 189.106 1246.77 188.543 1247.22 188.074C1247.67 187.599 1248.22 187.228 1248.86 186.961C1249.5 186.694 1250.21 186.561 1250.99 186.561C1251.39 186.561 1251.8 186.603 1252.22 186.688C1252.67 186.766 1253.03 186.857 1253.27 186.961L1253.11 188.523ZM1262.12 190.916C1262.12 190.525 1262.06 190.161 1261.95 189.822C1261.83 189.477 1261.67 189.178 1261.46 188.924C1261.24 188.663 1260.98 188.458 1260.66 188.309C1260.34 188.159 1259.99 188.084 1259.58 188.084C1259.11 188.084 1258.71 188.172 1258.38 188.348C1258.06 188.517 1257.79 188.738 1257.57 189.012C1257.36 189.285 1257.19 189.591 1257.07 189.93C1256.96 190.262 1256.88 190.59 1256.84 190.916H1262.12ZM1263.34 196.58C1263.15 196.645 1262.96 196.717 1262.76 196.795C1262.56 196.867 1262.34 196.935 1262.08 197C1261.83 197.072 1261.54 197.13 1261.22 197.176C1260.9 197.221 1260.54 197.244 1260.12 197.244C1259.22 197.244 1258.44 197.111 1257.78 196.844C1257.11 196.577 1256.56 196.202 1256.12 195.721C1255.69 195.239 1255.36 194.66 1255.15 193.982C1254.94 193.299 1254.84 192.544 1254.84 191.717C1254.84 190.968 1254.95 190.278 1255.18 189.646C1255.41 189.015 1255.73 188.471 1256.14 188.016C1256.57 187.553 1257.07 187.195 1257.66 186.941C1258.24 186.688 1258.9 186.561 1259.62 186.561C1260.47 186.561 1261.18 186.707 1261.75 187C1262.33 187.293 1262.79 187.7 1263.14 188.221C1263.49 188.735 1263.74 189.344 1263.89 190.047C1264.04 190.743 1264.11 191.502 1264.11 192.322H1256.84C1256.84 192.824 1256.93 193.283 1257.11 193.699C1257.29 194.116 1257.54 194.474 1257.84 194.773C1258.16 195.073 1258.51 195.307 1258.92 195.477C1259.33 195.639 1259.75 195.721 1260.2 195.721C1260.52 195.721 1260.84 195.685 1261.15 195.613C1261.48 195.542 1261.78 195.454 1262.06 195.35C1262.35 195.245 1262.6 195.135 1262.82 195.018C1263.05 194.9 1263.22 194.793 1263.34 194.695V196.58Z" fill="#333333"/>
<path d="M1355.18 43.9199L1352.4 50.8438H1357.96L1355.18 43.9199ZM1354.2 42.0352H1356.3L1362.2 56H1360.02L1358.6 52.4844H1351.76L1350.34 56H1348.24L1354.2 42.0352ZM1371.75 50.8633C1371.76 50.4076 1371.72 49.9551 1371.61 49.5059C1371.52 49.0501 1371.35 48.6432 1371.12 48.2852C1370.9 47.9271 1370.61 47.6374 1370.26 47.416C1369.9 47.1947 1369.46 47.084 1368.96 47.084C1368.44 47.084 1368 47.1947 1367.62 47.416C1367.24 47.6309 1366.93 47.9206 1366.67 48.2852C1366.42 48.6432 1366.24 49.0534 1366.12 49.5156C1365.99 49.9714 1365.93 50.4401 1365.93 50.9219C1365.93 51.3451 1365.99 51.7812 1366.1 52.2305C1366.21 52.6797 1366.39 53.0898 1366.63 53.4609C1366.87 53.8255 1367.18 54.1283 1367.56 54.3691C1367.94 54.6035 1368.4 54.7207 1368.94 54.7207C1369.27 54.7207 1369.57 54.6621 1369.84 54.5449C1370.11 54.4277 1370.35 54.2715 1370.56 54.0762C1370.77 53.8809 1370.96 53.653 1371.11 53.3926C1371.26 53.1322 1371.39 52.8587 1371.49 52.5723C1371.58 52.2858 1371.65 51.9961 1371.69 51.7031C1371.74 51.4102 1371.76 51.1302 1371.75 50.8633ZM1364.05 45.8047H1365.85V47.2402H1365.89C1366.01 47.0514 1366.18 46.8594 1366.38 46.6641C1366.59 46.4622 1366.83 46.2799 1367.12 46.1172C1367.41 45.9544 1367.75 45.821 1368.12 45.7168C1368.49 45.6126 1368.91 45.5605 1369.36 45.5605C1370.09 45.5605 1370.73 45.7005 1371.28 45.9805C1371.83 46.2604 1372.29 46.638 1372.66 47.1133C1373.02 47.5885 1373.3 48.1387 1373.48 48.7637C1373.66 49.3822 1373.75 50.0332 1373.75 50.7168C1373.75 51.4264 1373.67 52.1133 1373.5 52.7773C1373.34 53.4349 1373.07 54.0208 1372.72 54.5352C1372.37 55.0495 1371.91 55.4629 1371.36 55.7754C1370.81 56.0814 1370.15 56.2376 1369.38 56.2441C1368.47 56.2441 1367.74 56.0879 1367.21 55.7754C1366.69 55.4564 1366.27 55.0658 1365.97 54.6035H1365.93V60.1992H1364.05V45.8047ZM1383.98 50.8633C1383.99 50.4076 1383.94 49.9551 1383.84 49.5059C1383.74 49.0501 1383.58 48.6432 1383.35 48.2852C1383.13 47.9271 1382.84 47.6374 1382.48 47.416C1382.12 47.1947 1381.69 47.084 1381.18 47.084C1380.67 47.084 1380.22 47.1947 1379.85 47.416C1379.47 47.6309 1379.15 47.9206 1378.9 48.2852C1378.65 48.6432 1378.47 49.0534 1378.34 49.5156C1378.22 49.9714 1378.16 50.4401 1378.16 50.9219C1378.16 51.3451 1378.21 51.7812 1378.32 52.2305C1378.44 52.6797 1378.62 53.0898 1378.86 53.4609C1379.1 53.8255 1379.41 54.1283 1379.79 54.3691C1380.17 54.6035 1380.63 54.7207 1381.16 54.7207C1381.5 54.7207 1381.8 54.6621 1382.06 54.5449C1382.34 54.4277 1382.58 54.2715 1382.79 54.0762C1383 53.8809 1383.18 53.653 1383.33 53.3926C1383.49 53.1322 1383.62 52.8587 1383.71 52.5723C1383.81 52.2858 1383.88 51.9961 1383.92 51.7031C1383.96 51.4102 1383.98 51.1302 1383.98 50.8633ZM1376.28 45.8047H1378.08V47.2402H1378.12C1378.24 47.0514 1378.4 46.8594 1378.61 46.6641C1378.81 46.4622 1379.06 46.2799 1379.35 46.1172C1379.64 45.9544 1379.97 45.821 1380.34 45.7168C1380.72 45.6126 1381.13 45.5605 1381.58 45.5605C1382.32 45.5605 1382.96 45.7005 1383.51 45.9805C1384.06 46.2604 1384.52 46.638 1384.88 47.1133C1385.25 47.5885 1385.52 48.1387 1385.71 48.7637C1385.89 49.3822 1385.98 50.0332 1385.98 50.7168C1385.98 51.4264 1385.89 52.1133 1385.72 52.7773C1385.56 53.4349 1385.3 54.0208 1384.94 54.5352C1384.59 55.0495 1384.14 55.4629 1383.59 55.7754C1383.03 56.0814 1382.37 56.2376 1381.6 56.2441C1380.69 56.2441 1379.97 56.0879 1379.44 55.7754C1378.91 55.4564 1378.5 55.0658 1378.2 54.6035H1378.16V60.1992H1376.28V45.8047ZM1388.51 45.8047H1390.27V47.377H1390.3C1390.55 46.8496 1390.92 46.4134 1391.42 46.0684C1391.9 45.7298 1392.42 45.5605 1392.97 45.5605C1393.25 45.5605 1393.48 45.5736 1393.64 45.5996C1393.82 45.6257 1394.01 45.6582 1394.21 45.6973V47.377C1394.04 47.3118 1393.86 47.2663 1393.67 47.2402C1393.5 47.2142 1393.33 47.2012 1393.17 47.2012C1392.33 47.2012 1391.65 47.5755 1391.14 48.3242C1390.64 49.0664 1390.38 50.0788 1390.38 51.3613V56H1388.51V45.8047ZM1397.62 50.9023C1397.62 51.3516 1397.68 51.804 1397.8 52.2598C1397.93 52.7155 1398.13 53.1257 1398.39 53.4902C1398.65 53.8548 1398.98 54.151 1399.39 54.3789C1399.79 54.6068 1400.27 54.7207 1400.82 54.7207C1401.37 54.7207 1401.84 54.6068 1402.24 54.3789C1402.64 54.151 1402.97 53.8548 1403.22 53.4902C1403.49 53.1257 1403.68 52.7155 1403.8 52.2598C1403.93 51.804 1404 51.3516 1404 50.9023C1404 50.4141 1403.92 49.9421 1403.78 49.4863C1403.64 49.0306 1403.43 48.6237 1403.16 48.2656C1402.88 47.9076 1402.55 47.6211 1402.15 47.4062C1401.76 47.1914 1401.32 47.084 1400.82 47.084C1400.32 47.084 1399.87 47.1914 1399.47 47.4062C1399.08 47.6211 1398.74 47.9076 1398.47 48.2656C1398.2 48.6237 1397.98 49.0306 1397.83 49.4863C1397.69 49.9421 1397.62 50.4141 1397.62 50.9023ZM1395.62 50.9023C1395.62 50.1276 1395.74 49.4147 1395.99 48.7637C1396.24 48.1061 1396.59 47.543 1397.04 47.0742C1397.5 46.599 1398.05 46.2279 1398.68 45.9609C1399.33 45.694 1400.04 45.5605 1400.82 45.5605C1401.6 45.5605 1402.3 45.694 1402.94 45.9609C1403.58 46.2279 1404.12 46.599 1404.57 47.0742C1405.03 47.543 1405.38 48.1061 1405.63 48.7637C1405.87 49.4147 1406 50.1276 1406 50.9023C1406 51.6315 1405.87 52.3216 1405.62 52.9727C1405.36 53.6172 1405.01 54.1836 1404.55 54.6719C1404.1 55.1536 1403.55 55.5378 1402.91 55.8242C1402.28 56.1042 1401.58 56.2441 1400.82 56.2441C1400.05 56.2441 1399.35 56.1042 1398.71 55.8242C1398.07 55.5378 1397.52 55.1536 1397.06 54.6719C1396.61 54.1836 1396.25 53.6172 1396 52.9727C1395.74 52.3216 1395.62 51.6315 1395.62 50.9023ZM1413.05 56H1410.8L1407.15 45.8047H1409.2L1411.96 54.1152H1412L1414.83 45.8047H1416.7L1413.05 56ZM1424.58 51.1367C1424.39 51.1367 1424.19 51.1302 1423.99 51.1172C1423.78 51.1042 1423.59 51.0977 1423.39 51.0977C1423.26 51.0977 1423.11 51.1042 1422.95 51.1172C1422.79 51.1237 1422.61 51.1335 1422.4 51.1465C1422.01 51.1725 1421.62 51.2572 1421.23 51.4004C1420.85 51.5241 1420.53 51.7194 1420.26 51.9863C1419.98 52.2533 1419.85 52.6113 1419.85 53.0605C1419.85 53.3275 1419.9 53.5651 1420.02 53.7734C1420.14 53.9753 1420.29 54.1478 1420.47 54.291C1420.66 54.4277 1420.86 54.5352 1421.09 54.6133C1421.31 54.6849 1421.54 54.7207 1421.75 54.7207C1422.68 54.7207 1423.38 54.4635 1423.86 53.9492C1424.34 53.4284 1424.58 52.7904 1424.58 52.0352V51.1367ZM1419.01 46.5176C1419.47 46.2376 1419.99 46.0098 1420.55 45.834C1421.11 45.6517 1421.71 45.5605 1422.37 45.5605C1423.83 45.5605 1424.88 45.9154 1425.51 46.625C1426.15 47.3346 1426.47 48.3861 1426.47 49.7793V53.998C1426.47 54.584 1426.47 55.0267 1426.49 55.3262C1426.5 55.6257 1426.52 55.8503 1426.54 56H1424.79V54.6816H1424.75C1424.64 54.8379 1424.49 55.0072 1424.31 55.1895C1424.13 55.3717 1423.9 55.541 1423.63 55.6973C1423.37 55.8535 1423.07 55.9837 1422.73 56.0879C1422.39 56.1921 1422.01 56.2441 1421.58 56.2441C1421.04 56.2441 1420.53 56.1823 1420.07 56.0586C1419.61 55.9414 1419.22 55.7526 1418.89 55.4922C1418.56 55.2318 1418.3 54.903 1418.12 54.5059C1417.93 54.1022 1417.84 53.6204 1417.84 53.0605C1417.84 52.7415 1417.88 52.4486 1417.96 52.1816C1418.05 51.9147 1418.16 51.6738 1418.3 51.459C1418.45 51.2441 1418.63 51.0521 1418.83 50.8828C1419.03 50.7135 1419.25 50.5638 1419.48 50.4336C1419.95 50.1732 1420.47 49.9876 1421.03 49.877C1421.58 49.7598 1422.1 49.7012 1422.59 49.7012H1423.59C1423.74 49.7012 1423.89 49.7044 1424.05 49.7109C1424.22 49.7174 1424.39 49.7272 1424.58 49.7402C1424.58 48.8613 1424.4 48.2005 1424.04 47.7578C1423.67 47.3086 1423.01 47.084 1422.06 47.084C1421.53 47.084 1421 47.1784 1420.47 47.3672C1419.95 47.5495 1419.49 47.8001 1419.1 48.1191L1419.01 46.5176ZM1429.89 41H1431.78V56H1429.89V41ZM1447.31 44.1445C1447.06 44.0469 1446.83 43.9622 1446.62 43.8906C1446.41 43.819 1446.21 43.7604 1446.01 43.7148C1445.81 43.6628 1445.61 43.6237 1445.39 43.5977C1445.18 43.5716 1444.95 43.5586 1444.69 43.5586C1444.41 43.5586 1444.12 43.5879 1443.83 43.6465C1443.54 43.7051 1443.28 43.806 1443.05 43.9492C1442.81 44.0924 1442.62 44.2845 1442.47 44.5254C1442.32 44.7663 1442.25 45.0658 1442.25 45.4238C1442.25 45.8796 1442.39 46.2474 1442.69 46.5273C1442.98 46.8203 1443.35 47.0872 1443.8 47.3281C1444.25 47.5625 1444.73 47.7969 1445.25 48.0312C1445.62 48.2135 1445.99 48.4219 1446.35 48.6562C1446.71 48.8841 1447.04 49.1576 1447.32 49.4766C1447.6 49.7956 1447.83 50.1667 1448 50.5898C1448.17 51.013 1448.25 51.5111 1448.25 52.084C1448.25 52.8262 1448.12 53.4609 1447.84 53.9883C1447.58 54.5156 1447.21 54.9453 1446.74 55.2773C1446.28 55.6094 1445.74 55.8535 1445.12 56.0098C1444.5 56.166 1443.85 56.2441 1443.16 56.2441C1442.66 56.2441 1442.18 56.1823 1441.7 56.0586C1441.23 55.9414 1440.76 55.8079 1440.29 55.6582L1440.49 53.8027C1440.67 53.8678 1440.86 53.9395 1441.09 54.0176C1441.31 54.0957 1441.55 54.1706 1441.81 54.2422C1442.06 54.3073 1442.32 54.3626 1442.59 54.4082C1442.86 54.4538 1443.13 54.4766 1443.39 54.4766C1443.67 54.4766 1443.97 54.4342 1444.29 54.3496C1444.61 54.265 1444.91 54.1315 1445.19 53.9492C1445.46 53.7669 1445.69 53.5326 1445.86 53.2461C1446.04 52.9596 1446.13 52.6113 1446.13 52.2012C1446.13 51.8105 1446.05 51.4785 1445.88 51.2051C1445.71 50.9251 1445.48 50.681 1445.2 50.4727C1444.92 50.2578 1444.6 50.0658 1444.23 49.8965C1443.87 49.7207 1443.5 49.5449 1443.13 49.3691C1442.76 49.1868 1442.39 48.9915 1442.02 48.7832C1441.67 48.5684 1441.34 48.3177 1441.06 48.0312C1440.78 47.7383 1440.55 47.3965 1440.38 47.0059C1440.21 46.6087 1440.13 46.14 1440.13 45.5996C1440.13 44.9876 1440.24 44.444 1440.47 43.9688C1440.71 43.4935 1441.02 43.0964 1441.43 42.7773C1441.84 42.4583 1442.31 42.2174 1442.85 42.0547C1443.4 41.8854 1443.99 41.8008 1444.61 41.8008C1445.08 41.8008 1445.57 41.8398 1446.09 41.918C1446.6 41.9961 1447.1 42.123 1447.59 42.2988L1447.31 44.1445ZM1456.21 47.3184H1453.51V52.9043C1453.51 53.5098 1453.66 53.9622 1453.98 54.2617C1454.3 54.5677 1454.67 54.7207 1455.09 54.7207C1455.38 54.7207 1455.63 54.6849 1455.84 54.6133C1456.05 54.5352 1456.23 54.4505 1456.37 54.3594V55.9609C1456.15 56.026 1455.91 56.0879 1455.64 56.1465C1455.37 56.2116 1455.08 56.2441 1454.77 56.2441C1453.79 56.2441 1453.03 56.0065 1452.47 55.5312C1451.91 55.0495 1451.63 54.2975 1451.63 53.2754V47.3184H1449.33V45.8047H1451.63V43.4414L1453.51 42.8359V45.8047H1456.21V47.3184ZM1464.64 51.1367C1464.45 51.1367 1464.25 51.1302 1464.04 51.1172C1463.84 51.1042 1463.64 51.0977 1463.45 51.0977C1463.32 51.0977 1463.17 51.1042 1463.01 51.1172C1462.85 51.1237 1462.66 51.1335 1462.46 51.1465C1462.07 51.1725 1461.68 51.2572 1461.29 51.4004C1460.91 51.5241 1460.59 51.7194 1460.31 51.9863C1460.04 52.2533 1459.9 52.6113 1459.9 53.0605C1459.9 53.3275 1459.96 53.5651 1460.08 53.7734C1460.2 53.9753 1460.35 54.1478 1460.53 54.291C1460.72 54.4277 1460.92 54.5352 1461.14 54.6133C1461.37 54.6849 1461.59 54.7207 1461.81 54.7207C1462.74 54.7207 1463.44 54.4635 1463.92 53.9492C1464.4 53.4284 1464.64 52.7904 1464.64 52.0352V51.1367ZM1459.06 46.5176C1459.53 46.2376 1460.05 46.0098 1460.61 45.834C1461.17 45.6517 1461.77 45.5605 1462.42 45.5605C1463.89 45.5605 1464.94 45.9154 1465.57 46.625C1466.21 47.3346 1466.53 48.3861 1466.53 49.7793V53.998C1466.53 54.584 1466.53 55.0267 1466.54 55.3262C1466.56 55.6257 1466.58 55.8503 1466.6 56H1464.85V54.6816H1464.81C1464.7 54.8379 1464.55 55.0072 1464.37 55.1895C1464.18 55.3717 1463.96 55.541 1463.69 55.6973C1463.43 55.8535 1463.13 55.9837 1462.79 56.0879C1462.45 56.1921 1462.07 56.2441 1461.64 56.2441C1461.1 56.2441 1460.59 56.1823 1460.13 56.0586C1459.67 55.9414 1459.28 55.7526 1458.95 55.4922C1458.62 55.2318 1458.36 54.903 1458.18 54.5059C1457.99 54.1022 1457.9 53.6204 1457.9 53.0605C1457.9 52.7415 1457.94 52.4486 1458.02 52.1816C1458.1 51.9147 1458.22 51.6738 1458.36 51.459C1458.51 51.2441 1458.69 51.0521 1458.89 50.8828C1459.09 50.7135 1459.31 50.5638 1459.54 50.4336C1460.01 50.1732 1460.53 49.9876 1461.09 49.877C1461.64 49.7598 1462.16 49.7012 1462.65 49.7012H1463.64C1463.79 49.7012 1463.95 49.7044 1464.11 49.7109C1464.28 49.7174 1464.45 49.7272 1464.64 49.7402C1464.64 48.8613 1464.46 48.2005 1464.09 47.7578C1463.73 47.3086 1463.07 47.084 1462.12 47.084C1461.59 47.084 1461.06 47.1784 1460.53 47.3672C1460.01 47.5495 1459.55 47.8001 1459.16 48.1191L1459.06 46.5176ZM1475.14 47.3184H1472.43V52.9043C1472.43 53.5098 1472.59 53.9622 1472.9 54.2617C1473.23 54.5677 1473.6 54.7207 1474.02 54.7207C1474.31 54.7207 1474.56 54.6849 1474.77 54.6133C1474.98 54.5352 1475.15 54.4505 1475.29 54.3594V55.9609C1475.08 56.026 1474.84 56.0879 1474.56 56.1465C1474.3 56.2116 1474.01 56.2441 1473.69 56.2441C1472.72 56.2441 1471.95 56.0065 1471.4 55.5312C1470.84 55.0495 1470.56 54.2975 1470.56 53.2754V47.3184H1468.25V45.8047H1470.56V43.4414L1472.43 42.8359V45.8047H1475.14V47.3184ZM1486.53 56H1484.71V54.3789H1484.67C1484.38 54.9714 1483.94 55.4303 1483.33 55.7559C1482.71 56.0814 1482.05 56.2441 1481.33 56.2441C1480.01 56.2441 1479.05 55.8568 1478.43 55.082C1477.82 54.3138 1477.51 53.2396 1477.51 51.8594V45.8047H1479.39V51.0781C1479.39 52.276 1479.54 53.1712 1479.85 53.7637C1480.16 54.3561 1480.73 54.6751 1481.55 54.7207C1482.09 54.7207 1482.55 54.6198 1482.94 54.418C1483.33 54.2096 1483.65 53.9199 1483.91 53.5488C1484.16 53.1777 1484.35 52.735 1484.46 52.2207C1484.59 51.7064 1484.65 51.14 1484.65 50.5215V45.8047H1486.53V56ZM1488.98 53.998C1489.17 54.1217 1489.37 54.2292 1489.58 54.3203C1489.8 54.4115 1490.01 54.4863 1490.22 54.5449C1490.43 54.6035 1490.63 54.6491 1490.82 54.6816C1491.02 54.7077 1491.18 54.7207 1491.32 54.7207C1491.53 54.7207 1491.75 54.6979 1491.97 54.6523C1492.2 54.6068 1492.41 54.5286 1492.59 54.418C1492.78 54.3008 1492.93 54.151 1493.05 53.9688C1493.17 53.7799 1493.23 53.5423 1493.23 53.2559C1493.23 53.028 1493.17 52.8262 1493.04 52.6504C1492.92 52.4746 1492.75 52.3151 1492.54 52.1719C1492.34 52.0221 1492.1 51.8854 1491.84 51.7617C1491.57 51.6315 1491.3 51.498 1491.03 51.3613C1490.75 51.2181 1490.48 51.0684 1490.22 50.9121C1489.95 50.7493 1489.71 50.5638 1489.5 50.3555C1489.3 50.1471 1489.14 49.9095 1489.01 49.6426C1488.88 49.3691 1488.82 49.0534 1488.82 48.6953C1488.82 48.168 1488.91 47.709 1489.09 47.3184C1489.28 46.9212 1489.53 46.5924 1489.85 46.332C1490.17 46.0716 1490.55 45.8796 1490.99 45.7559C1491.43 45.6257 1491.91 45.5605 1492.41 45.5605C1492.86 45.5605 1493.27 45.6029 1493.64 45.6875C1494.02 45.7656 1494.39 45.8568 1494.76 45.9609L1494.6 47.6016C1494.49 47.5365 1494.34 47.4746 1494.16 47.416C1493.99 47.3509 1493.8 47.2956 1493.61 47.25C1493.41 47.1979 1493.22 47.1589 1493.04 47.1328C1492.86 47.1003 1492.72 47.084 1492.62 47.084C1492.13 47.084 1491.71 47.1849 1491.35 47.3867C1490.99 47.582 1490.81 47.8945 1490.81 48.3242C1490.81 48.5846 1490.87 48.8092 1491 48.998C1491.13 49.1803 1491.3 49.3431 1491.51 49.4863C1491.71 49.623 1491.95 49.7533 1492.21 49.877C1492.48 49.9941 1492.75 50.1211 1493.02 50.2578C1493.29 50.388 1493.56 50.5312 1493.83 50.6875C1494.1 50.8372 1494.33 51.0195 1494.53 51.2344C1494.74 51.4492 1494.91 51.7064 1495.04 52.0059C1495.17 52.2988 1495.24 52.6504 1495.24 53.0605C1495.24 53.6074 1495.14 54.0827 1494.93 54.4863C1494.73 54.8835 1494.46 55.2122 1494.13 55.4727C1493.8 55.7331 1493.42 55.9251 1492.99 56.0488C1492.57 56.179 1492.13 56.2441 1491.67 56.2441C1491.2 56.2441 1490.72 56.2051 1490.24 56.127C1489.76 56.0553 1489.31 55.9056 1488.88 55.6777L1488.98 53.998Z" fill="#333333"/>
<g clip-path="url(#clip0_19968_20000)">
<path d="M750 84C750 75.16 757.16 68 766 68C774.832 68 782 75.16 782 84C782 92.832 774.832 100 766 100C757.16 100 750 92.832 750 84Z" fill="#FFC107"/>
<path d="M772.133 84V78.9992C772.133 78.9361 772.121 78.8735 772.097 78.8152C772.073 78.7568 772.037 78.7038 771.993 78.6592L769.474 76.1408C769.384 76.0508 769.262 76.0001 769.135 76H759.813C759.686 76 759.564 76.0506 759.474 76.1406C759.384 76.2306 759.333 76.3527 759.333 76.48V91.52C759.333 91.6473 759.384 91.7694 759.474 91.8594C759.564 91.9494 759.686 92 759.813 92H764.933M762.533 82.4H768.933M762.533 79.2H765.733M762.533 85.6H764.933M772.533 90.8L773.733 92" stroke="white" stroke-linecap="round" stroke-linejoin="round"/>
<path d="M768.933 76V78.72C768.933 78.8473 768.984 78.9694 769.074 79.0594C769.164 79.1494 769.286 79.2 769.413 79.2H772.133M768.133 88.8C768.133 89.4365 768.386 90.047 768.836 90.4971C769.286 90.9471 769.897 91.2 770.533 91.2C771.17 91.2 771.78 90.9471 772.23 90.4971C772.68 90.047 772.933 89.4365 772.933 88.8C772.933 88.1635 772.68 87.553 772.23 87.1029C771.78 86.6529 771.17 86.4 770.533 86.4C769.897 86.4 769.286 86.6529 768.836 87.1029C768.386 87.553 768.133 88.1635 768.133 88.8Z" stroke="white" stroke-linecap="round" stroke-linejoin="round"/>
</g>
<g clip-path="url(#clip1_19968_20000)">
<path d="M1083 152C1083 143.712 1089.71 137 1098 137C1106.28 137 1113 143.713 1113 152C1113 160.28 1106.28 167 1098 167C1089.71 167 1083 160.28 1083 152Z" stroke="#CCCCCC" stroke-width="2"/>
</g>
<g clip-path="url(#clip2_19968_20000)">
<path d="M1415 82C1415 73.7123 1421.71 67 1430 67C1438.28 67 1445 73.7126 1445 82C1445 90.2797 1438.28 97 1430 97C1421.71 97 1415 90.28 1415 82Z" stroke="#CCCCCC" stroke-width="2"/>
</g>
<g clip-path="url(#clip3_19968_20000)">
<path d="M98 68C89.16 68 82 75.16 82 84C82 92.832 89.16 100 98 100C106.832 100 114 92.832 114 84C114 75.16 106.832 68 98 68ZM94.8 92L89.2 86.4L91.328 84L94.8 87.472C98.499 83.773 100.573 81.699 104.272 78L106.4 80.4L94.8 92Z" fill="#28A745"/>
</g>
<line x1="114" y1="83" x2="751" y2="83" stroke="#28A745" stroke-width="2"/>
<line x1="781" y1="83" x2="1415" y2="83" stroke="#CCCCCC" stroke-width="2"/>
<line x1="766" y1="153" x2="1082" y2="153" stroke="#CCCCCC" stroke-width="2"/>
<line x1="1113" y1="153" x2="1430" y2="153" stroke="#CCCCCC" stroke-width="2"/>
<line x1="767" y1="153" x2="767" y2="99" stroke="#CCCCCC" stroke-width="2"/>
<line x1="1430" y1="154" x2="1430" y2="98" stroke="#CCCCCC" stroke-width="2"/>
<defs>
<clipPath id="clip0_19968_20000">
<rect width="32" height="32" fill="white" transform="translate(750 68)"/>
</clipPath>
<clipPath id="clip1_19968_20000">
<rect width="32" height="32" fill="white" transform="translate(1082 136)"/>
</clipPath>
<clipPath id="clip2_19968_20000">
<rect width="32" height="32" fill="white" transform="translate(1414 66)"/>
</clipPath>
<clipPath id="clip3_19968_20000">
<rect width="32" height="32" fill="white" transform="translate(82 68)"/>
</clipPath>
</defs>
</svg>
